%TF.GenerationSoftware,KiCad,Pcbnew,7.0.6*%
%TF.CreationDate,2024-09-10T22:33:49-04:00*%
%TF.ProjectId,switchplate,73776974-6368-4706-9c61-74652e6b6963,2*%
%TF.SameCoordinates,Original*%
%TF.FileFunction,Profile,NP*%
%FSLAX46Y46*%
G04 Gerber Fmt 4.6, Leading zero omitted, Abs format (unit mm)*
G04 Created by KiCad (PCBNEW 7.0.6) date 2024-09-10 22:33:49*
%MOMM*%
%LPD*%
G01*
G04 APERTURE LIST*
%TA.AperFunction,Profile*%
%ADD10C,0.150000*%
%TD*%
G04 APERTURE END LIST*
D10*
X25455261Y62566202D02*
X42750329Y60135539D01*
X42750329Y60135539D02*
G75*
G03*
X42959089Y60120941I208760J1485402D01*
G01*
X42959089Y60120941D02*
X76796108Y60120941D01*
X74057684Y49901005D02*
X76796108Y60120941D01*
X74057485Y49900256D02*
G75*
G03*
X75212680Y48041850I1449088J-387480D01*
G01*
X122242263Y26111594D02*
G75*
G03*
X75212680Y48041848I-68492055J-85488927D01*
G01*
X122242263Y26111594D02*
G75*
G03*
X124408876Y26421858I937885J1170629D01*
G01*
X124409133Y26422225D02*
X133640281Y39605671D01*
X133640281Y39605671D02*
X144488990Y39605671D01*
X144488990Y39605671D02*
X153720139Y26422225D01*
X153720395Y26421858D02*
G75*
G03*
X155887008Y26111594I1228728J860365D01*
G01*
X202916591Y48041849D02*
G75*
G03*
X155887008Y26111594I21462473J-107419182D01*
G01*
X202916591Y48041850D02*
G75*
G03*
X204071786Y49900256I-293893J1470926D01*
G01*
X201333163Y60120941D02*
X204071587Y49901005D01*
X201333163Y60120941D02*
X235170182Y60120941D01*
X235170182Y60120942D02*
G75*
G03*
X235378942Y60135540I0J1499999D01*
G01*
X235378942Y60135539D02*
X252674010Y62566202D01*
X252674010Y62566203D02*
G75*
G03*
X253950651Y64260364I-208760J1485401D01*
G01*
X246982902Y113838488D02*
X253950652Y64260364D01*
X246982902Y113838488D02*
G75*
G03*
X245497500Y115129730I-1485403J-208759D01*
G01*
X245497499Y115129729D02*
X225656829Y115129729D01*
X225656829Y115129729D02*
X223909296Y123351225D01*
X223909295Y123351225D02*
G75*
G03*
X222130206Y124506578I-1467221J-311868D01*
G01*
X203762193Y120602337D02*
X222130207Y124506578D01*
X201952347Y127356776D02*
X203762193Y120602337D01*
X201952347Y127356776D02*
G75*
G03*
X200115230Y128417437I-1448889J-388228D01*
G01*
X200115229Y128417437D02*
X183694490Y124017513D01*
X183694490Y124017513D02*
G75*
G03*
X182633830Y122180395I388229J-1448889D01*
G01*
X182633830Y122180396D02*
X183321041Y119615688D01*
X94808230Y119615689D02*
G75*
G03*
X183321042Y119615689I44256406J260264040D01*
G01*
X94808230Y119615688D02*
X95495441Y122180396D01*
X95495441Y122180396D02*
G75*
G03*
X94434780Y124017513I-1448889J388228D01*
G01*
X94434781Y124017513D02*
X78014042Y128417437D01*
X78014042Y128417437D02*
G75*
G03*
X76176924Y127356777I-388229J-1448889D01*
G01*
X74367078Y120602337D02*
X76176925Y127356776D01*
X55999064Y124506578D02*
X74367078Y120602337D01*
X55999064Y124506578D02*
G75*
G03*
X54219976Y123351224I-311867J-1467221D01*
G01*
X54219976Y123351225D02*
X52472443Y115129729D01*
X52472443Y115129729D02*
X32631772Y115129729D01*
X32631772Y115129728D02*
G75*
G03*
X31146371Y113838489I0J-1499999D01*
G01*
X24178619Y64260364D02*
X31146370Y113838488D01*
X24178620Y64260364D02*
G75*
G03*
X25455261Y62566203I1485401J-208760D01*
G01*
X27316832Y64854390D02*
X41131072Y62912925D01*
X41131072Y62912925D02*
X43072537Y76727165D01*
X43072537Y76727165D02*
X29258297Y78668630D01*
X29258297Y78668630D02*
X27316832Y64854390D01*
X29682775Y81688947D02*
X43497014Y79747483D01*
X43497014Y79747483D02*
X45438479Y93561722D01*
X45438479Y93561722D02*
X31624240Y95503187D01*
X31624240Y95503187D02*
X29682775Y81688947D01*
X32048718Y98523505D02*
X45862957Y96582040D01*
X45862957Y96582040D02*
X47804422Y110396279D01*
X47804422Y110396279D02*
X33990182Y112337744D01*
X33990182Y112337744D02*
X32048718Y98523505D01*
X46996397Y74817513D02*
X60641556Y71917145D01*
X60641556Y71917145D02*
X63541924Y85562304D01*
X63541924Y85562304D02*
X49896765Y88462672D01*
X49896765Y88462672D02*
X46996397Y74817513D01*
X50530896Y91446022D02*
X64176055Y88545654D01*
X64176055Y88545654D02*
X67076423Y102190813D01*
X67076423Y102190813D02*
X53431264Y105091181D01*
X53431264Y105091181D02*
X50530896Y91446022D01*
X54065394Y108074531D02*
X67710554Y105174163D01*
X67710554Y105174163D02*
X70610922Y118819322D01*
X70610922Y118819322D02*
X56965763Y121719691D01*
X56965763Y121719691D02*
X54065394Y108074531D01*
X66423188Y79267632D02*
X79897853Y75657106D01*
X79897853Y75657106D02*
X83508379Y89131771D01*
X83508379Y89131771D02*
X70033713Y92742297D01*
X70033713Y92742297D02*
X66423188Y79267632D01*
X70823111Y95688371D02*
X84297777Y92077845D01*
X84297777Y92077845D02*
X87908302Y105552510D01*
X87908302Y105552510D02*
X74433637Y109163036D01*
X74433637Y109163036D02*
X70823111Y95688371D01*
X75223035Y112109110D02*
X88697700Y108498584D01*
X88697700Y108498584D02*
X92308226Y121973249D01*
X92308226Y121973249D02*
X78833561Y125583775D01*
X78833561Y125583775D02*
X75223035Y112109110D01*
X82709872Y70503704D02*
X96184537Y66893178D01*
X96184537Y66893178D02*
X99795063Y80367844D01*
X99795063Y80367844D02*
X86320397Y83978369D01*
X86320397Y83978369D02*
X82709872Y70503704D01*
X87109795Y86924443D02*
X100584461Y83313917D01*
X100584461Y83313917D02*
X104194986Y96788583D01*
X104194986Y96788583D02*
X90720321Y100399108D01*
X90720321Y100399108D02*
X87109795Y86924443D01*
X91509719Y103345182D02*
X104984384Y99734656D01*
X104984384Y99734656D02*
X108594910Y113209322D01*
X108594910Y113209322D02*
X95120245Y116819847D01*
X95120245Y116819847D02*
X91509719Y103345182D01*
X99578898Y63913110D02*
X113053564Y60302584D01*
X113053564Y60302584D02*
X116664089Y73777249D01*
X116664089Y73777249D02*
X103189424Y77387775D01*
X103189424Y77387775D02*
X99578898Y63913110D01*
X103978822Y80333849D02*
X117453487Y76723323D01*
X117453487Y76723323D02*
X121064013Y90197988D01*
X121064013Y90197988D02*
X107589348Y93808514D01*
X107589348Y93808514D02*
X103978822Y80333849D01*
X108378746Y96754588D02*
X121853411Y93144062D01*
X121853411Y93144062D02*
X125463937Y106618727D01*
X125463937Y106618727D02*
X111989272Y110229253D01*
X111989272Y110229253D02*
X108378746Y96754588D01*
X236998200Y62912925D02*
X250812439Y64854390D01*
X250812439Y64854390D02*
X248870974Y78668630D01*
X248870974Y78668630D02*
X235056735Y76727165D01*
X235056735Y76727165D02*
X236998200Y62912925D01*
X234632257Y79747483D02*
X248446496Y81688947D01*
X248446496Y81688947D02*
X246505032Y95503187D01*
X246505032Y95503187D02*
X232690792Y93561722D01*
X232690792Y93561722D02*
X234632257Y79747483D01*
X232266314Y96582040D02*
X246080554Y98523505D01*
X246080554Y98523505D02*
X244139089Y112337744D01*
X244139089Y112337744D02*
X230324849Y110396279D01*
X230324849Y110396279D02*
X232266314Y96582040D01*
X217487715Y71917145D02*
X231132874Y74817513D01*
X231132874Y74817513D02*
X228232506Y88462672D01*
X228232506Y88462672D02*
X214587347Y85562304D01*
X214587347Y85562304D02*
X217487715Y71917145D01*
X213953217Y88545654D02*
X227598376Y91446022D01*
X227598376Y91446022D02*
X224698008Y105091181D01*
X224698008Y105091181D02*
X211052848Y102190813D01*
X211052848Y102190813D02*
X213953217Y88545654D01*
X210418718Y105174163D02*
X224063877Y108074531D01*
X224063877Y108074531D02*
X221163509Y121719691D01*
X221163509Y121719691D02*
X207518350Y118819322D01*
X207518350Y118819322D02*
X210418718Y105174163D01*
X198231418Y75657106D02*
X211706084Y79267632D01*
X211706084Y79267632D02*
X208095558Y92742297D01*
X208095558Y92742297D02*
X194620893Y89131771D01*
X194620893Y89131771D02*
X198231418Y75657106D01*
X193831495Y92077845D02*
X207306160Y95688371D01*
X207306160Y95688371D02*
X203695634Y109163036D01*
X203695634Y109163036D02*
X190220969Y105552510D01*
X190220969Y105552510D02*
X193831495Y92077845D01*
X189431571Y108498584D02*
X202906236Y112109110D01*
X202906236Y112109110D02*
X199295711Y125583775D01*
X199295711Y125583775D02*
X185821045Y121973249D01*
X185821045Y121973249D02*
X189431571Y108498584D01*
X181944734Y66893178D02*
X195419400Y70503704D01*
X195419400Y70503704D02*
X191808874Y83978369D01*
X191808874Y83978369D02*
X178334209Y80367844D01*
X178334209Y80367844D02*
X181944734Y66893178D01*
X177544811Y83313917D02*
X191019476Y86924443D01*
X191019476Y86924443D02*
X187408950Y100399108D01*
X187408950Y100399108D02*
X173934285Y96788583D01*
X173934285Y96788583D02*
X177544811Y83313917D01*
X173144887Y99734656D02*
X186619552Y103345182D01*
X186619552Y103345182D02*
X183009027Y116819847D01*
X183009027Y116819847D02*
X169534361Y113209322D01*
X169534361Y113209322D02*
X173144887Y99734656D01*
X165075708Y60302584D02*
X178550373Y63913110D01*
X178550373Y63913110D02*
X174939847Y77387775D01*
X174939847Y77387775D02*
X161465182Y73777249D01*
X161465182Y73777249D02*
X165075708Y60302584D01*
X160675784Y76723323D02*
X174150449Y80333849D01*
X174150449Y80333849D02*
X170539923Y93808514D01*
X170539923Y93808514D02*
X157065258Y90197988D01*
X157065258Y90197988D02*
X160675784Y76723323D01*
X156275860Y93144062D02*
X169750525Y96754588D01*
X169750525Y96754588D02*
X166140000Y110229253D01*
X166140000Y110229253D02*
X152665334Y106618727D01*
X152665334Y106618727D02*
X156275860Y93144062D01*
X77274672Y50219262D02*
X90749337Y46608736D01*
X90749337Y46608736D02*
X94359863Y60083401D01*
X94359863Y60083401D02*
X80885197Y63693927D01*
X80885197Y63693927D02*
X77274672Y50219262D01*
X94790404Y45137908D02*
X107433397Y39242383D01*
X107433397Y39242383D02*
X113328922Y51885377D01*
X113328922Y51885377D02*
X100685929Y57780902D01*
X100685929Y57780902D02*
X94790404Y45137908D01*
X111157665Y37092176D02*
X122584836Y29090785D01*
X122584836Y29090785D02*
X130586227Y40517956D01*
X130586227Y40517956D02*
X119159056Y48519347D01*
X119159056Y48519347D02*
X111157665Y37092176D01*
X187379934Y46608736D02*
X200854600Y50219262D01*
X200854600Y50219262D02*
X197244074Y63693927D01*
X197244074Y63693927D02*
X183769409Y60083401D01*
X183769409Y60083401D02*
X187379934Y46608736D01*
X170695874Y39242383D02*
X183338867Y45137908D01*
X183338867Y45137908D02*
X177443343Y57780902D01*
X177443343Y57780902D02*
X164800349Y51885377D01*
X164800349Y51885377D02*
X170695874Y39242383D01*
X155544435Y29090785D02*
X166971607Y37092176D01*
X166971607Y37092176D02*
X158970215Y48519347D01*
X158970215Y48519347D02*
X147543044Y40517956D01*
X147543044Y40517956D02*
X155544435Y29090785D01*
X135964636Y50129729D02*
X142164636Y50129729D01*
X144164636Y52129729D02*
X144164636Y52629729D01*
X142164636Y54629729D02*
X135964636Y54629729D01*
X133964636Y52629729D02*
X133964636Y52129729D01*
X142164636Y50129729D02*
G75*
G03*
X144164636Y52129729I0J2000000D01*
G01*
X144164636Y52629729D02*
G75*
G03*
X142164636Y54629729I-2000000J0D01*
G01*
X135964636Y54629729D02*
G75*
G03*
X133964636Y52629729I0J-2000000D01*
G01*
X133964636Y52129729D02*
G75*
G03*
X135964636Y50129729I2000000J0D01*
G01*
M02*
