%TF.GenerationSoftware,KiCad,Pcbnew,7.0.6*%
%TF.CreationDate,2025-05-26T00:34:49-04:00*%
%TF.ProjectId,bw2,6277322e-6b69-4636-9164-5f7063625858,2*%
%TF.SameCoordinates,Original*%
%TF.FileFunction,Copper,L2,Bot*%
%TF.FilePolarity,Positive*%
%FSLAX46Y46*%
G04 Gerber Fmt 4.6, Leading zero omitted, Abs format (unit mm)*
G04 Created by KiCad (PCBNEW 7.0.6) date 2025-05-26 00:34:49*
%MOMM*%
%LPD*%
G01*
G04 APERTURE LIST*
G04 Aperture macros list*
%AMRotRect*
0 Rectangle, with rotation*
0 The origin of the aperture is its center*
0 $1 length*
0 $2 width*
0 $3 Rotation angle, in degrees counterclockwise*
0 Add horizontal line*
21,1,$1,$2,0,0,$3*%
G04 Aperture macros list end*
%TA.AperFunction,ComponentPad*%
%ADD10O,2.500000X1.500000*%
%TD*%
%TA.AperFunction,ComponentPad*%
%ADD11O,1.500000X2.500000*%
%TD*%
%TA.AperFunction,ComponentPad*%
%ADD12C,1.752600*%
%TD*%
%TA.AperFunction,ComponentPad*%
%ADD13C,0.600000*%
%TD*%
%TA.AperFunction,SMDPad,CuDef*%
%ADD14RotRect,1.460000X0.254000X35.000000*%
%TD*%
%TA.AperFunction,SMDPad,CuDef*%
%ADD15RotRect,0.900000X1.200000X35.000000*%
%TD*%
%TA.AperFunction,SMDPad,CuDef*%
%ADD16RotRect,1.460000X0.254000X25.000000*%
%TD*%
%TA.AperFunction,SMDPad,CuDef*%
%ADD17RotRect,0.900000X1.200000X25.000000*%
%TD*%
%TA.AperFunction,SMDPad,CuDef*%
%ADD18RotRect,1.460000X0.254000X15.000000*%
%TD*%
%TA.AperFunction,SMDPad,CuDef*%
%ADD19RotRect,0.900000X1.200000X15.000000*%
%TD*%
%TA.AperFunction,SMDPad,CuDef*%
%ADD20RotRect,1.460000X0.254000X325.000000*%
%TD*%
%TA.AperFunction,SMDPad,CuDef*%
%ADD21RotRect,0.900000X1.200000X325.000000*%
%TD*%
%TA.AperFunction,SMDPad,CuDef*%
%ADD22RotRect,1.460000X0.254000X335.000000*%
%TD*%
%TA.AperFunction,SMDPad,CuDef*%
%ADD23RotRect,0.900000X1.200000X335.000000*%
%TD*%
%TA.AperFunction,SMDPad,CuDef*%
%ADD24RotRect,1.460000X0.254000X345.000000*%
%TD*%
%TA.AperFunction,SMDPad,CuDef*%
%ADD25RotRect,0.900000X1.200000X345.000000*%
%TD*%
%TA.AperFunction,SMDPad,CuDef*%
%ADD26RotRect,1.460000X0.254000X12.000000*%
%TD*%
%TA.AperFunction,SMDPad,CuDef*%
%ADD27RotRect,0.900000X1.200000X12.000000*%
%TD*%
%TA.AperFunction,SMDPad,CuDef*%
%ADD28RotRect,1.460000X0.254000X8.000000*%
%TD*%
%TA.AperFunction,SMDPad,CuDef*%
%ADD29RotRect,0.900000X1.200000X8.000000*%
%TD*%
%TA.AperFunction,SMDPad,CuDef*%
%ADD30RotRect,1.460000X0.254000X348.000000*%
%TD*%
%TA.AperFunction,SMDPad,CuDef*%
%ADD31RotRect,0.900000X1.200000X348.000000*%
%TD*%
%TA.AperFunction,SMDPad,CuDef*%
%ADD32RotRect,1.460000X0.254000X352.000000*%
%TD*%
%TA.AperFunction,SMDPad,CuDef*%
%ADD33RotRect,0.900000X1.200000X352.000000*%
%TD*%
%TA.AperFunction,ViaPad*%
%ADD34C,0.800000*%
%TD*%
%TA.AperFunction,Conductor*%
%ADD35C,0.250000*%
%TD*%
G04 APERTURE END LIST*
D10*
%TO.P,U1,1,GP0*%
%TO.N,unconnected-(U1-GP0-Pad1)*%
X105103476Y96793351D03*
%TO.P,U1,2,GP1*%
%TO.N,unconnected-(U1-GP1-Pad2)*%
X105103476Y94253351D03*
%TO.P,U1,3,GP2*%
%TO.N,unconnected-(U1-GP2-Pad3)*%
X105103476Y91713351D03*
%TO.P,U1,4,GP3*%
%TO.N,unconnected-(U1-GP3-Pad4)*%
X105103476Y89173351D03*
%TO.P,U1,5,GP4*%
%TO.N,unconnected-(U1-GP4-Pad5)*%
X105103476Y86633351D03*
%TO.P,U1,6,GP5*%
%TO.N,ROW4*%
X105103476Y84093351D03*
%TO.P,U1,7,GP6*%
%TO.N,ROW5*%
X105103476Y81553351D03*
%TO.P,U1,8,GP7*%
%TO.N,ROW6*%
X105103476Y79013351D03*
%TO.P,U1,9,GP8*%
%TO.N,ROW7*%
X105103476Y76473351D03*
D11*
%TO.P,U1,10,GP9*%
%TO.N,COL0*%
X102063476Y75973351D03*
%TO.P,U1,11,GP10*%
%TO.N,COL1*%
X99523476Y75973351D03*
%TO.P,U1,12,GP11*%
%TO.N,COL2*%
X96983476Y75973351D03*
%TO.P,U1,13,GP12*%
%TO.N,COL3*%
X94443476Y75973351D03*
%TO.P,U1,14,GP13*%
%TO.N,COL4*%
X91903476Y75973351D03*
D10*
%TO.P,U1,15,GP14*%
%TO.N,ROW3*%
X88863476Y76473351D03*
%TO.P,U1,16,GP15*%
%TO.N,ROW2*%
X88863476Y79013351D03*
%TO.P,U1,17,GP26*%
%TO.N,ROW1*%
X88863476Y81553351D03*
%TO.P,U1,18,GP27*%
%TO.N,ROW0*%
X88863476Y84093351D03*
%TO.P,U1,19,GP28*%
%TO.N,unconnected-(U1-GP28-Pad19)*%
X88863476Y86633351D03*
%TO.P,U1,20,GP29*%
%TO.N,unconnected-(U1-GP29-Pad20)*%
X88863476Y89173351D03*
%TO.P,U1,21,3V3*%
%TO.N,unconnected-(U1-3V3-Pad21)*%
X88863476Y91713351D03*
%TO.P,U1,22,5V*%
%TO.N,unconnected-(U1-5V-Pad22)*%
X88863476Y96793351D03*
%TO.P,U1,23,GND*%
%TO.N,unconnected-(U1-GND-Pad23)*%
X88863476Y94253351D03*
%TD*%
D12*
%TO.P,SW36,1,1*%
%TO.N,Net-(D36-A)*%
X106649258Y51823711D03*
%TO.P,SW36,2,2*%
%TO.N,COL4*%
X109517140Y47727951D03*
%TD*%
%TO.P,SW35,1,1*%
%TO.N,Net-(D35-A)*%
X117120063Y57869042D03*
%TO.P,SW35,2,2*%
%TO.N,COL3*%
X119233154Y53337503D03*
%TD*%
%TO.P,SW34,1,1*%
%TO.N,Net-(D34-A)*%
X128481562Y62004281D03*
%TO.P,SW34,2,2*%
%TO.N,COL2*%
X129775657Y57174651D03*
%TD*%
%TO.P,SW33,1,1*%
%TO.N,Net-(D33-A)*%
X84403927Y47662427D03*
%TO.P,SW33,2,2*%
%TO.N,COL4*%
X87271809Y51758187D03*
%TD*%
%TO.P,SW32,1,1*%
%TO.N,Net-(D32-A)*%
X74699988Y53265006D03*
%TO.P,SW32,2,2*%
%TO.N,COL3*%
X76813079Y57796545D03*
%TD*%
%TO.P,SW31,1,1*%
%TO.N,Net-(D31-A)*%
X64170602Y57097373D03*
%TO.P,SW31,2,2*%
%TO.N,COL2*%
X65464697Y61927003D03*
%TD*%
%TO.P,SW30,1,1*%
%TO.N,Net-(D30-A)*%
X109612064Y90698225D03*
%TO.P,SW30,2,2*%
%TO.N,COL4*%
X110906159Y85868595D03*
%TD*%
%TO.P,SW29,1,1*%
%TO.N,Net-(D29-A)*%
X112252011Y80845771D03*
%TO.P,SW29,2,2*%
%TO.N,COL4*%
X113546106Y76016141D03*
%TD*%
%TO.P,SW28,1,1*%
%TO.N,Net-(D28-A)*%
X114891957Y70993337D03*
%TO.P,SW28,2,2*%
%TO.N,COL4*%
X116186052Y66163707D03*
%TD*%
%TO.P,SW27,1,1*%
%TO.N,Net-(D27-A)*%
X119526419Y95425320D03*
%TO.P,SW27,2,2*%
%TO.N,COL3*%
X120820514Y90595690D03*
%TD*%
%TO.P,SW26,1,1*%
%TO.N,Net-(D26-A)*%
X122166362Y85572874D03*
%TO.P,SW26,2,2*%
%TO.N,COL3*%
X123460457Y80743244D03*
%TD*%
%TO.P,SW25,1,1*%
%TO.N,Net-(D25-A)*%
X124806330Y75720422D03*
%TO.P,SW25,2,2*%
%TO.N,COL3*%
X126100425Y70890792D03*
%TD*%
%TO.P,SW24,1,1*%
%TO.N,Net-(D24-A)*%
X129298421Y100683665D03*
%TO.P,SW24,2,2*%
%TO.N,COL2*%
X130592516Y95854035D03*
%TD*%
%TO.P,SW23,1,1*%
%TO.N,Net-(D23-A)*%
X131938388Y90831226D03*
%TO.P,SW23,2,2*%
%TO.N,COL2*%
X133232483Y86001596D03*
%TD*%
%TO.P,SW22,1,1*%
%TO.N,Net-(D22-A)*%
X134578333Y80978800D03*
%TO.P,SW22,2,2*%
%TO.N,COL2*%
X135872428Y76149170D03*
%TD*%
%TO.P,SW21,1,1*%
%TO.N,Net-(D21-A)*%
X142284204Y98558150D03*
%TO.P,SW21,2,2*%
%TO.N,COL1*%
X143323763Y93667412D03*
%TD*%
%TO.P,SW20,1,1*%
%TO.N,Net-(D20-A)*%
X144404914Y88581055D03*
%TO.P,SW20,2,2*%
%TO.N,COL1*%
X145444473Y83690317D03*
%TD*%
%TO.P,SW19,1,1*%
%TO.N,Net-(D19-A)*%
X146525611Y78603947D03*
%TO.P,SW19,2,2*%
%TO.N,COL1*%
X147565170Y73713209D03*
%TD*%
%TO.P,SW18,1,1*%
%TO.N,Net-(D18-A)*%
X155905766Y93196726D03*
%TO.P,SW18,2,2*%
%TO.N,COL0*%
X156601632Y88245386D03*
%TD*%
%TO.P,SW17,1,1*%
%TO.N,Net-(D17-A)*%
X157325323Y83096001D03*
%TO.P,SW17,2,2*%
%TO.N,COL0*%
X158021189Y78144661D03*
%TD*%
%TO.P,SW16,1,1*%
%TO.N,Net-(D16-A)*%
X158744897Y72995254D03*
%TO.P,SW16,2,2*%
%TO.N,COL0*%
X159440763Y68043914D03*
%TD*%
%TO.P,SW15,2,2*%
%TO.N,COL4*%
X84334195Y90620943D03*
%TO.P,SW15,1,1*%
%TO.N,Net-(D15-A)*%
X83040100Y85791313D03*
%TD*%
%TO.P,SW14,2,2*%
%TO.N,COL4*%
X81694252Y80768501D03*
%TO.P,SW14,1,1*%
%TO.N,Net-(D14-A)*%
X80400157Y75938871D03*
%TD*%
%TO.P,SW13,1,1*%
%TO.N,Net-(D13-A)*%
X77760195Y66086425D03*
%TO.P,SW13,2,2*%
%TO.N,COL4*%
X79054290Y70916055D03*
%TD*%
%TO.P,SW12,2,2*%
%TO.N,COL3*%
X74419834Y95348041D03*
%TO.P,SW12,1,1*%
%TO.N,Net-(D12-A)*%
X73125739Y90518411D03*
%TD*%
%TO.P,SW11,2,2*%
%TO.N,COL3*%
X71779883Y85495592D03*
%TO.P,SW11,1,1*%
%TO.N,Net-(D11-A)*%
X70485788Y80665962D03*
%TD*%
%TO.P,SW10,1,1*%
%TO.N,Net-(D10-A)*%
X67845830Y70813526D03*
%TO.P,SW10,2,2*%
%TO.N,COL3*%
X69139925Y75643156D03*
%TD*%
%TO.P,SW9,1,1*%
%TO.N,Net-(D9-A)*%
X63353730Y95776764D03*
%TO.P,SW9,2,2*%
%TO.N,COL2*%
X64647825Y100606394D03*
%TD*%
%TO.P,SW8,1,1*%
%TO.N,Net-(D8-A)*%
X60713783Y85924323D03*
%TO.P,SW8,2,2*%
%TO.N,COL2*%
X62007878Y90753953D03*
%TD*%
%TO.P,SW7,1,1*%
%TO.N,Net-(D7-A)*%
X58073824Y76071877D03*
%TO.P,SW7,2,2*%
%TO.N,COL2*%
X59367919Y80901507D03*
%TD*%
%TO.P,SW6,1,1*%
%TO.N,Net-(D6-A)*%
X50626540Y93589165D03*
%TO.P,SW6,2,2*%
%TO.N,COL1*%
X51666099Y98479903D03*
%TD*%
%TO.P,SW5,1,1*%
%TO.N,Net-(D5-A)*%
X48505847Y83612072D03*
%TO.P,SW5,2,2*%
%TO.N,COL1*%
X49545406Y88502810D03*
%TD*%
%TO.P,SW4,1,1*%
%TO.N,Net-(D4-A)*%
X46385153Y73634952D03*
%TO.P,SW4,2,2*%
%TO.N,COL1*%
X47424712Y78525690D03*
%TD*%
%TO.P,SW3,1,1*%
%TO.N,Net-(D3-A)*%
X37354192Y88166169D03*
%TO.P,SW3,2,2*%
%TO.N,COL0*%
X38050058Y93117509D03*
%TD*%
%TO.P,SW2,1,1*%
%TO.N,Net-(D2-A)*%
X35934632Y78065431D03*
%TO.P,SW2,2,2*%
%TO.N,COL0*%
X36630498Y83016771D03*
%TD*%
%TO.P,SW1,1,1*%
%TO.N,Net-(D1-A)*%
X34515066Y67964690D03*
%TO.P,SW1,2,2*%
%TO.N,COL0*%
X35210932Y72916030D03*
%TD*%
D13*
%TO.P,D36,1,K*%
%TO.N,ROW7*%
X106025496Y48286181D03*
D14*
X106467838Y48595912D03*
D15*
X106754541Y48796664D03*
%TO.P,D36,2,A*%
%TO.N,Net-(D36-A)*%
X109457743Y50689466D03*
%TD*%
D13*
%TO.P,D35,1,K*%
%TO.N,ROW7*%
X115891491Y54493570D03*
D16*
X116380897Y54721783D03*
D17*
X116698105Y54869700D03*
%TO.P,D35,2,A*%
%TO.N,Net-(D35-A)*%
X119688921Y56264340D03*
%TD*%
D13*
%TO.P,D34,1,K*%
%TO.N,ROW7*%
X126685510Y58893429D03*
D18*
X127207110Y59033191D03*
D19*
X127545184Y59123778D03*
%TO.P,D34,2,A*%
%TO.N,Net-(D34-A)*%
X130732740Y59977880D03*
%TD*%
D13*
%TO.P,D33,1,K*%
%TO.N,ROW3*%
X83780165Y51199957D03*
D20*
X84222507Y50890226D03*
D21*
X84509210Y50689474D03*
%TO.P,D33,2,A*%
%TO.N,Net-(D33-A)*%
X87212412Y48796672D03*
%TD*%
D13*
%TO.P,D32,1,K*%
%TO.N,ROW3*%
X73471416Y56640478D03*
D22*
X73960822Y56412265D03*
D23*
X74278030Y56264348D03*
%TO.P,D32,2,A*%
%TO.N,Net-(D32-A)*%
X77268846Y54869708D03*
%TD*%
D13*
%TO.P,D31,1,K*%
%TO.N,ROW3*%
X62374550Y60208225D03*
D24*
X62896150Y60068463D03*
D25*
X63234224Y59977876D03*
%TO.P,D31,2,A*%
%TO.N,Net-(D31-A)*%
X66421780Y59123774D03*
%TD*%
D13*
%TO.P,D30,1,K*%
%TO.N,ROW4*%
X107816012Y87587373D03*
D18*
X108337612Y87727135D03*
D19*
X108675686Y87817722D03*
%TO.P,D30,2,A*%
%TO.N,Net-(D30-A)*%
X111863242Y88671824D03*
%TD*%
D13*
%TO.P,D29,1,K*%
%TO.N,ROW5*%
X110455959Y77734919D03*
D18*
X110977559Y77874681D03*
D19*
X111315633Y77965268D03*
%TO.P,D29,2,A*%
%TO.N,Net-(D29-A)*%
X114503189Y78819370D03*
%TD*%
D13*
%TO.P,D28,1,K*%
%TO.N,ROW6*%
X113095905Y67882485D03*
D18*
X113617505Y68022247D03*
D19*
X113955579Y68112834D03*
%TO.P,D28,2,A*%
%TO.N,Net-(D28-A)*%
X117143135Y68966936D03*
%TD*%
D13*
%TO.P,D27,1,K*%
%TO.N,ROW4*%
X117730367Y92314468D03*
D18*
X118251967Y92454230D03*
D19*
X118590041Y92544817D03*
%TO.P,D27,2,A*%
%TO.N,Net-(D27-A)*%
X121777597Y93398919D03*
%TD*%
D13*
%TO.P,D26,1,K*%
%TO.N,ROW5*%
X120370310Y82462022D03*
D18*
X120891910Y82601784D03*
D19*
X121229984Y82692371D03*
%TO.P,D26,2,A*%
%TO.N,Net-(D26-A)*%
X124417540Y83546473D03*
%TD*%
D13*
%TO.P,D25,1,K*%
%TO.N,ROW6*%
X123010278Y72609570D03*
D18*
X123531878Y72749332D03*
D19*
X123869952Y72839919D03*
%TO.P,D25,2,A*%
%TO.N,Net-(D25-A)*%
X127057508Y73694021D03*
%TD*%
D13*
%TO.P,D24,1,K*%
%TO.N,ROW4*%
X127502369Y97572813D03*
D18*
X128023969Y97712575D03*
D19*
X128362043Y97803162D03*
%TO.P,D24,2,A*%
%TO.N,Net-(D24-A)*%
X131549599Y98657264D03*
%TD*%
D13*
%TO.P,D23,1,K*%
%TO.N,ROW5*%
X130142336Y87720374D03*
D18*
X130663936Y87860136D03*
D19*
X131002010Y87950723D03*
%TO.P,D23,2,A*%
%TO.N,Net-(D23-A)*%
X134189566Y88804825D03*
%TD*%
D13*
%TO.P,D22,1,K*%
%TO.N,ROW6*%
X132782281Y77867948D03*
D18*
X133303881Y78007710D03*
D19*
X133641955Y78098297D03*
%TO.P,D22,2,A*%
%TO.N,Net-(D22-A)*%
X136829511Y78952399D03*
%TD*%
D13*
%TO.P,D21,1,K*%
%TO.N,ROW4*%
X140327805Y95545559D03*
D26*
X140856005Y95657832D03*
D27*
X141198356Y95730601D03*
%TO.P,D21,2,A*%
%TO.N,Net-(D21-A)*%
X144426244Y96416709D03*
%TD*%
D13*
%TO.P,D20,1,K*%
%TO.N,ROW5*%
X142448515Y85568464D03*
D26*
X142976715Y85680737D03*
D27*
X143319066Y85753506D03*
%TO.P,D20,2,A*%
%TO.N,Net-(D20-A)*%
X146546954Y86439614D03*
%TD*%
%TO.P,D19,2,A*%
%TO.N,Net-(D19-A)*%
X148667651Y76462506D03*
%TO.P,D19,1,K*%
%TO.N,ROW6*%
X145439763Y75776398D03*
D26*
X145097412Y75703629D03*
D13*
X144569212Y75591356D03*
%TD*%
%TO.P,D18,1,K*%
%TO.N,ROW4*%
X153743985Y90327945D03*
D28*
X154278730Y90403099D03*
D29*
X154625324Y90451809D03*
%TO.P,D18,2,A*%
%TO.N,Net-(D18-A)*%
X157893208Y90911081D03*
%TD*%
D13*
%TO.P,D17,1,K*%
%TO.N,ROW5*%
X155163542Y80227220D03*
D28*
X155698287Y80302374D03*
D29*
X156044881Y80351084D03*
%TO.P,D17,2,A*%
%TO.N,Net-(D17-A)*%
X159312765Y80810356D03*
%TD*%
D13*
%TO.P,D16,1,K*%
%TO.N,ROW6*%
X156583116Y70126473D03*
D28*
X157117861Y70201627D03*
D29*
X157464455Y70250337D03*
%TO.P,D16,2,A*%
%TO.N,Net-(D16-A)*%
X160732339Y70709609D03*
%TD*%
D13*
%TO.P,D15,1,K*%
%TO.N,ROW0*%
X81244048Y88902165D03*
D24*
X81765648Y88762403D03*
D25*
X82103722Y88671816D03*
%TO.P,D15,2,A*%
%TO.N,Net-(D15-A)*%
X85291278Y87817714D03*
%TD*%
D13*
%TO.P,D14,1,K*%
%TO.N,ROW1*%
X78604105Y79049723D03*
D24*
X79125705Y78909961D03*
D25*
X79463779Y78819374D03*
%TO.P,D14,2,A*%
%TO.N,Net-(D14-A)*%
X82651335Y77965272D03*
%TD*%
D13*
%TO.P,D13,1,K*%
%TO.N,ROW2*%
X75964143Y69197277D03*
D24*
X76485743Y69057515D03*
D25*
X76823817Y68966928D03*
%TO.P,D13,2,A*%
%TO.N,Net-(D13-A)*%
X80011373Y68112826D03*
%TD*%
D13*
%TO.P,D12,1,K*%
%TO.N,ROW0*%
X71329687Y93629263D03*
D24*
X71851287Y93489501D03*
D25*
X72189361Y93398914D03*
%TO.P,D12,2,A*%
%TO.N,Net-(D12-A)*%
X75376917Y92544812D03*
%TD*%
D13*
%TO.P,D11,1,K*%
%TO.N,ROW1*%
X68689736Y83776814D03*
D24*
X69211336Y83637052D03*
D25*
X69549410Y83546465D03*
%TO.P,D11,2,A*%
%TO.N,Net-(D11-A)*%
X72736966Y82692363D03*
%TD*%
D13*
%TO.P,D10,1,K*%
%TO.N,ROW2*%
X66049778Y73924378D03*
D24*
X66571378Y73784616D03*
D25*
X66909452Y73694029D03*
%TO.P,D10,2,A*%
%TO.N,Net-(D10-A)*%
X70097008Y72839927D03*
%TD*%
D13*
%TO.P,D9,1,K*%
%TO.N,ROW0*%
X61557678Y98887616D03*
D24*
X62079278Y98747854D03*
D25*
X62417352Y98657267D03*
%TO.P,D9,2,A*%
%TO.N,Net-(D9-A)*%
X65604908Y97803165D03*
%TD*%
D13*
%TO.P,D8,1,K*%
%TO.N,ROW1*%
X58917731Y89035175D03*
D24*
X59439331Y88895413D03*
D25*
X59777405Y88804826D03*
%TO.P,D8,2,A*%
%TO.N,Net-(D8-A)*%
X62964961Y87950724D03*
%TD*%
D13*
%TO.P,D7,1,K*%
%TO.N,ROW2*%
X56277772Y79182729D03*
D24*
X56799372Y79042967D03*
D25*
X57137446Y78952380D03*
%TO.P,D7,2,A*%
%TO.N,Net-(D7-A)*%
X60325002Y78098278D03*
%TD*%
D13*
%TO.P,D6,1,K*%
%TO.N,ROW0*%
X48670141Y96601756D03*
D30*
X49198341Y96489483D03*
D31*
X49540692Y96416714D03*
%TO.P,D6,2,A*%
%TO.N,Net-(D6-A)*%
X52768580Y95730606D03*
%TD*%
D13*
%TO.P,D5,1,K*%
%TO.N,ROW1*%
X46549448Y86624663D03*
D30*
X47077648Y86512390D03*
D31*
X47419999Y86439621D03*
%TO.P,D5,2,A*%
%TO.N,Net-(D5-A)*%
X50647887Y85753513D03*
%TD*%
D13*
%TO.P,D4,1,K*%
%TO.N,ROW2*%
X44428754Y76647543D03*
D30*
X44956954Y76535270D03*
D31*
X45299305Y76462501D03*
%TO.P,D4,2,A*%
%TO.N,Net-(D4-A)*%
X48527193Y75776393D03*
%TD*%
D13*
%TO.P,D3,1,K*%
%TO.N,ROW0*%
X35192411Y91034950D03*
D32*
X35727156Y90959796D03*
D33*
X36073750Y90911086D03*
%TO.P,D3,2,A*%
%TO.N,Net-(D3-A)*%
X39341634Y90451814D03*
%TD*%
D13*
%TO.P,D2,1,K*%
%TO.N,ROW1*%
X33772851Y80934212D03*
D32*
X34307596Y80859058D03*
D33*
X34654190Y80810348D03*
%TO.P,D2,2,A*%
%TO.N,Net-(D2-A)*%
X37922074Y80351076D03*
%TD*%
D13*
%TO.P,D1,1,K*%
%TO.N,ROW2*%
X32353285Y70833471D03*
D32*
X32888030Y70758317D03*
D33*
X33234624Y70709607D03*
%TO.P,D1,2,A*%
%TO.N,Net-(D1-A)*%
X36502508Y70250335D03*
%TD*%
D34*
%TO.N,ROW2*%
X81900000Y69150000D03*
%TO.N,COL0*%
X102046046Y59385766D03*
X102050000Y68250000D03*
%TO.N,COL1*%
X99525000Y59950500D03*
X99525000Y67485217D03*
%TO.N,COL2*%
X96975000Y60675731D03*
X96978953Y66760717D03*
%TO.N,COL3*%
X94425000Y61435651D03*
X94418282Y66980976D03*
%TO.N,COL4*%
X91891218Y67192225D03*
%TO.N,COL0*%
X157322936Y74481348D03*
%TD*%
D35*
%TO.N,COL2*%
X132475000Y59873994D02*
X132475000Y72751742D01*
X132475000Y72751742D02*
X135872428Y76149170D01*
X129775657Y57174651D02*
X132475000Y59873994D01*
%TO.N,COL3*%
X126100425Y60204774D02*
X126100425Y70890792D01*
X119233154Y53337503D02*
X126100425Y60204774D01*
%TO.N,COL4*%
X115309752Y65287407D02*
X116186052Y66163707D01*
X115309752Y57840248D02*
X115309752Y65287407D01*
X117684514Y54381473D02*
X117684514Y55465486D01*
X117684514Y55465486D02*
X115309752Y57840248D01*
X111030992Y47727951D02*
X117684514Y54381473D01*
X109517140Y47727951D02*
X111030992Y47727951D01*
%TO.N,ROW7*%
X115891491Y54493570D02*
X104603476Y65781585D01*
X104603476Y65781585D02*
X104603476Y76473351D01*
%TO.N,ROW3*%
X87578884Y50366367D02*
X84613755Y50366367D01*
X89363476Y52150959D02*
X87578884Y50366367D01*
X89363476Y76473351D02*
X89363476Y52150959D01*
X84613755Y50366367D02*
X83780165Y51199957D01*
%TO.N,COL4*%
X87271809Y62698536D02*
X79054290Y70916055D01*
X87271809Y51758187D02*
X87271809Y62698536D01*
%TO.N,COL2*%
X64588397Y75681029D02*
X59367919Y80901507D01*
X64588397Y62803303D02*
X64588397Y75681029D01*
X65464697Y61927003D02*
X64588397Y62803303D01*
%TO.N,COL3*%
X75339143Y59270481D02*
X75339143Y69443938D01*
X76813079Y57796545D02*
X75339143Y59270481D01*
X75339143Y69443938D02*
X69139925Y75643156D01*
%TO.N,ROW2*%
X81900000Y71549875D02*
X89363476Y79013351D01*
X81900000Y69150000D02*
X81900000Y71549875D01*
%TO.N,COL0*%
X102050000Y59389720D02*
X102046046Y59385766D01*
X102050000Y68250000D02*
X102050000Y59389720D01*
X102063476Y68263476D02*
X102050000Y68250000D01*
X102063476Y76473351D02*
X102063476Y68263476D01*
%TO.N,COL1*%
X99525000Y67485217D02*
X99525000Y59950500D01*
X99523476Y67486741D02*
X99525000Y67485217D01*
X99523476Y76473351D02*
X99523476Y67486741D01*
%TO.N,COL2*%
X96983476Y66765240D02*
X96983476Y76473351D01*
X96978953Y66760717D02*
X96975000Y66756764D01*
X96975000Y66756764D02*
X96975000Y60675731D01*
X96978953Y66760717D02*
X96983476Y66765240D01*
%TO.N,COL4*%
X91903476Y67204483D02*
X91903476Y76473351D01*
X91891218Y67192225D02*
X91903476Y67204483D01*
%TO.N,COL3*%
X94443476Y67006170D02*
X94418282Y66980976D01*
X94443476Y76473351D02*
X94443476Y67006170D01*
X94418282Y65006718D02*
X94418282Y66980976D01*
X94425000Y66974258D02*
X94425000Y61435651D01*
X94418282Y66980976D02*
X94425000Y66974258D01*
%TO.N,COL2*%
X97000000Y60550000D02*
X96975000Y60575000D01*
X96975000Y60575000D02*
X96975000Y60675731D01*
%TO.N,Net-(D24-A)*%
X131319251Y99516936D02*
X131549600Y98657263D01*
X129298421Y100683664D02*
X131319251Y99516936D01*
%TO.N,Net-(D22-A)*%
X136599163Y79812073D02*
X136829511Y78952400D01*
X134578335Y80978800D02*
X136599163Y79812073D01*
%TO.N,Net-(D23-A)*%
X133959216Y89664498D02*
X134189567Y88804825D01*
X131938389Y90831225D02*
X133959216Y89664498D01*
%TO.N,ROW6*%
X145055965Y73774759D02*
X144569210Y75591353D01*
X153025890Y69173319D02*
X145055965Y73774759D01*
X156583118Y70126473D02*
X153025890Y69173319D01*
%TO.N,COL0*%
X159091434Y70529482D02*
X159440760Y68043918D01*
X156998772Y76787852D02*
X157734647Y71551913D01*
X158021194Y78144651D02*
X156998772Y76787852D01*
X156326942Y81568224D02*
X157683732Y80545809D01*
X155579206Y86888589D02*
X156326942Y81568224D01*
X156601629Y88245388D02*
X155579206Y86888589D01*
X157683732Y80545809D02*
X158021194Y78144651D01*
X157734647Y71551913D02*
X159091434Y70529482D01*
%TO.N,Net-(D33-A)*%
X86701926Y48067624D02*
X87212414Y48796669D01*
X84403922Y47662429D02*
X86701926Y48067624D01*
%TO.N,Net-(D32-A)*%
X76892722Y54063094D02*
X77268852Y54869707D01*
X74699993Y53265003D02*
X76892722Y54063094D01*
%TO.N,COL0*%
X37700728Y90631935D02*
X38050056Y93117504D01*
X36343938Y89609518D02*
X37700728Y90631935D01*
X35608075Y84373578D02*
X36343938Y89609518D01*
X36630499Y83016774D02*
X35608075Y84373578D01*
X34924380Y79508781D02*
X36281180Y80531198D01*
X34188505Y74272822D02*
X34924380Y79508781D01*
X36281180Y80531198D02*
X36630499Y83016774D01*
X35210928Y72916037D02*
X34188505Y74272822D01*
%TO.N,Net-(D1-A)*%
X36378638Y69369002D02*
X36502498Y70250342D01*
X34515064Y67964691D02*
X36378638Y69369002D01*
%TO.N,Net-(D2-A)*%
X37798217Y79469738D02*
X37922080Y80351076D01*
X35934633Y78065433D02*
X37798217Y79469738D01*
%TO.N,Net-(D3-A)*%
X39217766Y89570473D02*
X39341635Y90451815D01*
X37354193Y88166175D02*
X39217766Y89570473D01*
%TO.N,COL1*%
X49719429Y95099468D02*
X51144237Y96024750D01*
X51144237Y96024750D02*
X51666102Y98479900D01*
X48620125Y89927625D02*
X49719429Y95099468D01*
X49545415Y88502808D02*
X48620125Y89927625D01*
X47623110Y85237003D02*
X49047921Y86162286D01*
X46499424Y79950509D02*
X47623110Y85237003D01*
X47424713Y78525698D02*
X46499424Y79950509D01*
X49047921Y86162286D02*
X49545415Y88502808D01*
%TO.N,Net-(D4-A)*%
X46385157Y73634960D02*
X48342158Y74905855D01*
X48342158Y74905855D02*
X48527186Y75776399D01*
%TO.N,Net-(D5-A)*%
X48505849Y83612077D02*
X50462850Y84882957D01*
X50462850Y84882957D02*
X50647884Y85753515D01*
%TO.N,Net-(D6-A)*%
X52583535Y94860050D02*
X52768582Y95730604D01*
X50626545Y93589166D02*
X52583535Y94860050D01*
%TO.N,Net-(D31-A)*%
X66191428Y58264106D02*
X66421774Y59123773D01*
X64170597Y57097384D02*
X66191428Y58264106D01*
%TO.N,COL4*%
X83718079Y88321578D02*
X84334201Y90620940D01*
X80844797Y82239783D02*
X82246801Y87472137D01*
X82246801Y87472137D02*
X83718079Y88321578D01*
X81694241Y80768500D02*
X80844797Y82239783D01*
X81091071Y78517436D02*
X81694241Y80768500D01*
X78204841Y72387342D02*
X79619792Y77667985D01*
X79054296Y70916057D02*
X78204841Y72387342D01*
X79619792Y77667985D02*
X81091071Y78517436D01*
%TO.N,COL3*%
X73770206Y92923561D02*
X74419836Y95348042D01*
X70930435Y86966879D02*
X72298904Y92074120D01*
X72298904Y92074120D02*
X73770206Y92923561D01*
X71779882Y85495591D02*
X70930435Y86966879D01*
X71176714Y83244532D02*
X71779882Y85495591D01*
X69705436Y82395085D02*
X71176714Y83244532D01*
X68290490Y77114431D02*
X69705436Y82395085D01*
X69139927Y75643148D02*
X68290490Y77114431D01*
%TO.N,COL2*%
X63998188Y98181919D02*
X64647831Y100606389D01*
X62526915Y97332480D02*
X63998188Y98181919D01*
X61158433Y92225248D02*
X62526915Y97332480D01*
X62007872Y90753950D02*
X61158433Y92225248D01*
X59886952Y87480032D02*
X61358241Y88329483D01*
X61358241Y88329483D02*
X62007872Y90753950D01*
X58518470Y82372788D02*
X59886952Y87480032D01*
X59367922Y80901508D02*
X58518470Y82372788D01*
%TO.N,Net-(D9-A)*%
X65374558Y96943490D02*
X65604913Y97803166D01*
X63353725Y95776766D02*
X65374558Y96943490D01*
%TO.N,Net-(D8-A)*%
X62734613Y87091054D02*
X62964953Y87950724D01*
X60713776Y85924325D02*
X62734613Y87091054D01*
%TO.N,Net-(D7-A)*%
X60094663Y77238606D02*
X60324998Y78098278D01*
X58073825Y76071884D02*
X60094663Y77238606D01*
%TO.N,Net-(D12-A)*%
X75146566Y91685138D02*
X75376917Y92544819D01*
X73125733Y90518407D02*
X75146566Y91685138D01*
%TO.N,Net-(D11-A)*%
X72506613Y81832686D02*
X72736972Y82692356D01*
X70485793Y80665965D02*
X72506613Y81832686D01*
%TO.N,Net-(D10-A)*%
X69866653Y71980239D02*
X70097012Y72839914D01*
X67845831Y70813526D02*
X69866653Y71980239D01*
%TO.N,Net-(D13-A)*%
X79781021Y67253155D02*
X80011373Y68112825D01*
X77760196Y66086420D02*
X79781021Y67253155D01*
%TO.N,Net-(D14-A)*%
X80400150Y75938871D02*
X82420985Y77105593D01*
X82420985Y77105593D02*
X82651327Y77965262D01*
%TO.N,Net-(D15-A)*%
X83040102Y85791321D02*
X85060935Y86958048D01*
X85060935Y86958048D02*
X85291277Y87817717D01*
%TO.N,Net-(D36-A)*%
X108947266Y51418522D02*
X109457760Y50689469D01*
X106649259Y51823718D02*
X108947266Y51418522D01*
%TO.N,Net-(D35-A)*%
X117120062Y57869047D02*
X119312788Y57070950D01*
X119312788Y57070950D02*
X119688918Y56264343D01*
%TO.N,Net-(D34-A)*%
X128481554Y62004281D02*
X130502389Y60837568D01*
X130502389Y60837568D02*
X130732737Y59977880D01*
%TO.N,Net-(D16-A)*%
X160608476Y71590947D02*
X160732336Y70709611D01*
X158744891Y72995262D02*
X160608476Y71590947D01*
%TO.N,Net-(D17-A)*%
X159188902Y81691685D02*
X159312772Y80810346D01*
X157325332Y83095979D02*
X159188902Y81691685D01*
%TO.N,Net-(D18-A)*%
X157769349Y91792416D02*
X157893201Y90911079D01*
X155905770Y93196738D02*
X157769349Y91792416D01*
%TO.N,Net-(D21-A)*%
X144241211Y97287277D02*
X144426247Y96416716D01*
X142284213Y98558170D02*
X144241211Y97287277D01*
%TO.N,Net-(D20-A)*%
X146361915Y87310165D02*
X146546956Y86439630D01*
X144404914Y88581057D02*
X146361915Y87310165D01*
%TO.N,Net-(D19-A)*%
X148482608Y77333064D02*
X148667651Y76462497D01*
X146525607Y78603953D02*
X148482608Y77333064D01*
%TO.N,COL1*%
X147043311Y76168355D02*
X147565177Y73713209D01*
X145618494Y77093648D02*
X147043311Y76168355D01*
X145444474Y83690326D02*
X144519192Y82265506D01*
X144519192Y82265506D02*
X145618494Y77093648D01*
X143529002Y86923986D02*
X144953814Y85998703D01*
X142398486Y92242608D02*
X143529002Y86923986D01*
X144953814Y85998703D02*
X145444474Y83690326D01*
X143323773Y93667424D02*
X142398486Y92242608D01*
%TO.N,COL2*%
X133751501Y79423086D02*
X135222803Y78573628D01*
X135222803Y78573628D02*
X135872435Y76149157D01*
X132383031Y84530314D02*
X133751501Y79423086D01*
X133232473Y86001588D02*
X132383031Y84530314D01*
X131111551Y89275509D02*
X132582834Y88426073D01*
X129743068Y94382765D02*
X131111551Y89275509D01*
X130592532Y95854041D02*
X129743068Y94382765D01*
X132582834Y88426073D02*
X133232473Y86001588D01*
%TO.N,COL3*%
X125450786Y73315267D02*
X126100417Y70890795D01*
X123979494Y74164723D02*
X125450786Y73315267D01*
X122611019Y79271962D02*
X123979494Y74164723D01*
X123460464Y80743248D02*
X122611019Y79271962D01*
X122810829Y83167709D02*
X123460464Y80743248D01*
X121339542Y84017169D02*
X122810829Y83167709D01*
X119971073Y89124399D02*
X121339542Y84017169D01*
X120820514Y90595694D02*
X119971073Y89124399D01*
%TO.N,COL4*%
X112696654Y74544855D02*
X114103272Y69295305D01*
X114103272Y69295305D02*
X115574557Y68445874D01*
X115574557Y68445874D02*
X116186055Y66163699D01*
X113546104Y76016142D02*
X112696654Y74544855D01*
X111469786Y79123611D02*
X112941078Y78274153D01*
X112941078Y78274153D02*
X113546104Y76016142D01*
X110056700Y84397308D02*
X111469786Y79123611D01*
X110906151Y85868588D02*
X110056700Y84397308D01*
%TO.N,Net-(D27-A)*%
X121547249Y94258581D02*
X121777599Y93398913D01*
X119526423Y95425303D02*
X121547249Y94258581D01*
%TO.N,Net-(D26-A)*%
X124187198Y84406158D02*
X124417554Y83546473D01*
X122166361Y85572871D02*
X124187198Y84406158D01*
%TO.N,Net-(D25-A)*%
X126827162Y74553702D02*
X127057504Y73694031D01*
X124806326Y75720426D02*
X126827162Y74553702D01*
%TO.N,Net-(D28-A)*%
X116912785Y69826606D02*
X117143143Y68966928D01*
X114891959Y70993334D02*
X116912785Y69826606D01*
%TO.N,Net-(D29-A)*%
X114272835Y79679040D02*
X114503186Y78819373D01*
X112252008Y80845768D02*
X114272835Y79679040D01*
%TO.N,Net-(D30-A)*%
X111632885Y89531486D02*
X111863242Y88671816D01*
X109612050Y90698225D02*
X111632885Y89531486D01*
%TD*%
M02*
