%TF.GenerationSoftware,KiCad,Pcbnew,7.0.6*%
%TF.CreationDate,2025-05-26T00:34:49-04:00*%
%TF.ProjectId,bw2,6277322e-6b69-4636-9164-5f7063625858,2*%
%TF.SameCoordinates,Original*%
%TF.FileFunction,Copper,L1,Top*%
%TF.FilePolarity,Positive*%
%FSLAX46Y46*%
G04 Gerber Fmt 4.6, Leading zero omitted, Abs format (unit mm)*
G04 Created by KiCad (PCBNEW 7.0.6) date 2025-05-26 00:34:49*
%MOMM*%
%LPD*%
G01*
G04 APERTURE LIST*
%TA.AperFunction,ComponentPad*%
%ADD10O,2.500000X1.500000*%
%TD*%
%TA.AperFunction,ComponentPad*%
%ADD11O,1.500000X2.500000*%
%TD*%
%TA.AperFunction,ComponentPad*%
%ADD12C,1.752600*%
%TD*%
%TA.AperFunction,ComponentPad*%
%ADD13C,0.600000*%
%TD*%
%TA.AperFunction,ViaPad*%
%ADD14C,0.800000*%
%TD*%
%TA.AperFunction,Conductor*%
%ADD15C,0.250000*%
%TD*%
G04 APERTURE END LIST*
D10*
%TO.P,U1,1,GP0*%
%TO.N,unconnected-(U1-GP0-Pad1)*%
X105103476Y96793351D03*
%TO.P,U1,2,GP1*%
%TO.N,unconnected-(U1-GP1-Pad2)*%
X105103476Y94253351D03*
%TO.P,U1,3,GP2*%
%TO.N,unconnected-(U1-GP2-Pad3)*%
X105103476Y91713351D03*
%TO.P,U1,4,GP3*%
%TO.N,unconnected-(U1-GP3-Pad4)*%
X105103476Y89173351D03*
%TO.P,U1,5,GP4*%
%TO.N,unconnected-(U1-GP4-Pad5)*%
X105103476Y86633351D03*
%TO.P,U1,6,GP5*%
%TO.N,ROW4*%
X105103476Y84093351D03*
%TO.P,U1,7,GP6*%
%TO.N,ROW5*%
X105103476Y81553351D03*
%TO.P,U1,8,GP7*%
%TO.N,ROW6*%
X105103476Y79013351D03*
%TO.P,U1,9,GP8*%
%TO.N,ROW7*%
X105103476Y76473351D03*
D11*
%TO.P,U1,10,GP9*%
%TO.N,COL0*%
X102063476Y75973351D03*
%TO.P,U1,11,GP10*%
%TO.N,COL1*%
X99523476Y75973351D03*
%TO.P,U1,12,GP11*%
%TO.N,COL2*%
X96983476Y75973351D03*
%TO.P,U1,13,GP12*%
%TO.N,COL3*%
X94443476Y75973351D03*
%TO.P,U1,14,GP13*%
%TO.N,COL4*%
X91903476Y75973351D03*
D10*
%TO.P,U1,15,GP14*%
%TO.N,ROW3*%
X88863476Y76473351D03*
%TO.P,U1,16,GP15*%
%TO.N,ROW2*%
X88863476Y79013351D03*
%TO.P,U1,17,GP26*%
%TO.N,ROW1*%
X88863476Y81553351D03*
%TO.P,U1,18,GP27*%
%TO.N,ROW0*%
X88863476Y84093351D03*
%TO.P,U1,19,GP28*%
%TO.N,unconnected-(U1-GP28-Pad19)*%
X88863476Y86633351D03*
%TO.P,U1,20,GP29*%
%TO.N,unconnected-(U1-GP29-Pad20)*%
X88863476Y89173351D03*
%TO.P,U1,21,3V3*%
%TO.N,unconnected-(U1-3V3-Pad21)*%
X88863476Y91713351D03*
%TO.P,U1,22,5V*%
%TO.N,unconnected-(U1-5V-Pad22)*%
X88863476Y96793351D03*
%TO.P,U1,23,GND*%
%TO.N,unconnected-(U1-GND-Pad23)*%
X88863476Y94253351D03*
%TD*%
D12*
%TO.P,SW36,1,1*%
%TO.N,Net-(D36-A)*%
X106649258Y51823711D03*
%TO.P,SW36,2,2*%
%TO.N,COL4*%
X109517140Y47727951D03*
%TD*%
%TO.P,SW35,1,1*%
%TO.N,Net-(D35-A)*%
X117120063Y57869042D03*
%TO.P,SW35,2,2*%
%TO.N,COL3*%
X119233154Y53337503D03*
%TD*%
%TO.P,SW34,1,1*%
%TO.N,Net-(D34-A)*%
X128481562Y62004281D03*
%TO.P,SW34,2,2*%
%TO.N,COL2*%
X129775657Y57174651D03*
%TD*%
%TO.P,SW33,1,1*%
%TO.N,Net-(D33-A)*%
X84403927Y47662427D03*
%TO.P,SW33,2,2*%
%TO.N,COL4*%
X87271809Y51758187D03*
%TD*%
%TO.P,SW32,1,1*%
%TO.N,Net-(D32-A)*%
X74699988Y53265006D03*
%TO.P,SW32,2,2*%
%TO.N,COL3*%
X76813079Y57796545D03*
%TD*%
%TO.P,SW31,1,1*%
%TO.N,Net-(D31-A)*%
X64170602Y57097373D03*
%TO.P,SW31,2,2*%
%TO.N,COL2*%
X65464697Y61927003D03*
%TD*%
%TO.P,SW30,1,1*%
%TO.N,Net-(D30-A)*%
X109612064Y90698225D03*
%TO.P,SW30,2,2*%
%TO.N,COL4*%
X110906159Y85868595D03*
%TD*%
%TO.P,SW29,1,1*%
%TO.N,Net-(D29-A)*%
X112252011Y80845771D03*
%TO.P,SW29,2,2*%
%TO.N,COL4*%
X113546106Y76016141D03*
%TD*%
%TO.P,SW28,1,1*%
%TO.N,Net-(D28-A)*%
X114891957Y70993337D03*
%TO.P,SW28,2,2*%
%TO.N,COL4*%
X116186052Y66163707D03*
%TD*%
%TO.P,SW27,1,1*%
%TO.N,Net-(D27-A)*%
X119526419Y95425320D03*
%TO.P,SW27,2,2*%
%TO.N,COL3*%
X120820514Y90595690D03*
%TD*%
%TO.P,SW26,1,1*%
%TO.N,Net-(D26-A)*%
X122166362Y85572874D03*
%TO.P,SW26,2,2*%
%TO.N,COL3*%
X123460457Y80743244D03*
%TD*%
%TO.P,SW25,1,1*%
%TO.N,Net-(D25-A)*%
X124806330Y75720422D03*
%TO.P,SW25,2,2*%
%TO.N,COL3*%
X126100425Y70890792D03*
%TD*%
%TO.P,SW24,1,1*%
%TO.N,Net-(D24-A)*%
X129298421Y100683665D03*
%TO.P,SW24,2,2*%
%TO.N,COL2*%
X130592516Y95854035D03*
%TD*%
%TO.P,SW23,1,1*%
%TO.N,Net-(D23-A)*%
X131938388Y90831226D03*
%TO.P,SW23,2,2*%
%TO.N,COL2*%
X133232483Y86001596D03*
%TD*%
%TO.P,SW22,1,1*%
%TO.N,Net-(D22-A)*%
X134578333Y80978800D03*
%TO.P,SW22,2,2*%
%TO.N,COL2*%
X135872428Y76149170D03*
%TD*%
%TO.P,SW21,1,1*%
%TO.N,Net-(D21-A)*%
X142284204Y98558150D03*
%TO.P,SW21,2,2*%
%TO.N,COL1*%
X143323763Y93667412D03*
%TD*%
%TO.P,SW20,1,1*%
%TO.N,Net-(D20-A)*%
X144404914Y88581055D03*
%TO.P,SW20,2,2*%
%TO.N,COL1*%
X145444473Y83690317D03*
%TD*%
%TO.P,SW19,1,1*%
%TO.N,Net-(D19-A)*%
X146525611Y78603947D03*
%TO.P,SW19,2,2*%
%TO.N,COL1*%
X147565170Y73713209D03*
%TD*%
%TO.P,SW18,1,1*%
%TO.N,Net-(D18-A)*%
X155905766Y93196726D03*
%TO.P,SW18,2,2*%
%TO.N,COL0*%
X156601632Y88245386D03*
%TD*%
%TO.P,SW17,1,1*%
%TO.N,Net-(D17-A)*%
X157325323Y83096001D03*
%TO.P,SW17,2,2*%
%TO.N,COL0*%
X158021189Y78144661D03*
%TD*%
%TO.P,SW16,1,1*%
%TO.N,Net-(D16-A)*%
X158744897Y72995254D03*
%TO.P,SW16,2,2*%
%TO.N,COL0*%
X159440763Y68043914D03*
%TD*%
%TO.P,SW15,2,2*%
%TO.N,COL4*%
X84334195Y90620943D03*
%TO.P,SW15,1,1*%
%TO.N,Net-(D15-A)*%
X83040100Y85791313D03*
%TD*%
%TO.P,SW14,2,2*%
%TO.N,COL4*%
X81694252Y80768501D03*
%TO.P,SW14,1,1*%
%TO.N,Net-(D14-A)*%
X80400157Y75938871D03*
%TD*%
%TO.P,SW13,1,1*%
%TO.N,Net-(D13-A)*%
X77760195Y66086425D03*
%TO.P,SW13,2,2*%
%TO.N,COL4*%
X79054290Y70916055D03*
%TD*%
%TO.P,SW12,2,2*%
%TO.N,COL3*%
X74419834Y95348041D03*
%TO.P,SW12,1,1*%
%TO.N,Net-(D12-A)*%
X73125739Y90518411D03*
%TD*%
%TO.P,SW11,2,2*%
%TO.N,COL3*%
X71779883Y85495592D03*
%TO.P,SW11,1,1*%
%TO.N,Net-(D11-A)*%
X70485788Y80665962D03*
%TD*%
%TO.P,SW10,1,1*%
%TO.N,Net-(D10-A)*%
X67845830Y70813526D03*
%TO.P,SW10,2,2*%
%TO.N,COL3*%
X69139925Y75643156D03*
%TD*%
%TO.P,SW9,1,1*%
%TO.N,Net-(D9-A)*%
X63353730Y95776764D03*
%TO.P,SW9,2,2*%
%TO.N,COL2*%
X64647825Y100606394D03*
%TD*%
%TO.P,SW8,1,1*%
%TO.N,Net-(D8-A)*%
X60713783Y85924323D03*
%TO.P,SW8,2,2*%
%TO.N,COL2*%
X62007878Y90753953D03*
%TD*%
%TO.P,SW7,1,1*%
%TO.N,Net-(D7-A)*%
X58073824Y76071877D03*
%TO.P,SW7,2,2*%
%TO.N,COL2*%
X59367919Y80901507D03*
%TD*%
%TO.P,SW6,1,1*%
%TO.N,Net-(D6-A)*%
X50626540Y93589165D03*
%TO.P,SW6,2,2*%
%TO.N,COL1*%
X51666099Y98479903D03*
%TD*%
%TO.P,SW5,1,1*%
%TO.N,Net-(D5-A)*%
X48505847Y83612072D03*
%TO.P,SW5,2,2*%
%TO.N,COL1*%
X49545406Y88502810D03*
%TD*%
%TO.P,SW4,1,1*%
%TO.N,Net-(D4-A)*%
X46385153Y73634952D03*
%TO.P,SW4,2,2*%
%TO.N,COL1*%
X47424712Y78525690D03*
%TD*%
%TO.P,SW3,1,1*%
%TO.N,Net-(D3-A)*%
X37354192Y88166169D03*
%TO.P,SW3,2,2*%
%TO.N,COL0*%
X38050058Y93117509D03*
%TD*%
%TO.P,SW2,1,1*%
%TO.N,Net-(D2-A)*%
X35934632Y78065431D03*
%TO.P,SW2,2,2*%
%TO.N,COL0*%
X36630498Y83016771D03*
%TD*%
%TO.P,SW1,1,1*%
%TO.N,Net-(D1-A)*%
X34515066Y67964690D03*
%TO.P,SW1,2,2*%
%TO.N,COL0*%
X35210932Y72916030D03*
%TD*%
D13*
%TO.P,D36,1,K*%
%TO.N,ROW7*%
X106025496Y48286181D03*
%TD*%
%TO.P,D35,1,K*%
%TO.N,ROW7*%
X115891491Y54493570D03*
%TD*%
%TO.P,D34,1,K*%
%TO.N,ROW7*%
X126685510Y58893429D03*
%TD*%
%TO.P,D33,1,K*%
%TO.N,ROW3*%
X83780165Y51199957D03*
%TD*%
%TO.P,D32,1,K*%
%TO.N,ROW3*%
X73471416Y56640478D03*
%TD*%
%TO.P,D31,1,K*%
%TO.N,ROW3*%
X62374550Y60208225D03*
%TD*%
%TO.P,D30,1,K*%
%TO.N,ROW4*%
X107816012Y87587373D03*
%TD*%
%TO.P,D29,1,K*%
%TO.N,ROW5*%
X110455959Y77734919D03*
%TD*%
%TO.P,D28,1,K*%
%TO.N,ROW6*%
X113095905Y67882485D03*
%TD*%
%TO.P,D27,1,K*%
%TO.N,ROW4*%
X117730367Y92314468D03*
%TD*%
%TO.P,D26,1,K*%
%TO.N,ROW5*%
X120370310Y82462022D03*
%TD*%
%TO.P,D25,1,K*%
%TO.N,ROW6*%
X123010278Y72609570D03*
%TD*%
%TO.P,D24,1,K*%
%TO.N,ROW4*%
X127502369Y97572813D03*
%TD*%
%TO.P,D23,1,K*%
%TO.N,ROW5*%
X130142336Y87720374D03*
%TD*%
%TO.P,D22,1,K*%
%TO.N,ROW6*%
X132782281Y77867948D03*
%TD*%
%TO.P,D21,1,K*%
%TO.N,ROW4*%
X140327805Y95545559D03*
%TD*%
%TO.P,D20,1,K*%
%TO.N,ROW5*%
X142448515Y85568464D03*
%TD*%
%TO.P,D19,1,K*%
%TO.N,ROW6*%
X144569212Y75591356D03*
%TD*%
%TO.P,D18,1,K*%
%TO.N,ROW4*%
X153743985Y90327945D03*
%TD*%
%TO.P,D17,1,K*%
%TO.N,ROW5*%
X155163542Y80227220D03*
%TD*%
%TO.P,D16,1,K*%
%TO.N,ROW6*%
X156583116Y70126473D03*
%TD*%
%TO.P,D15,1,K*%
%TO.N,ROW0*%
X81244048Y88902165D03*
%TD*%
%TO.P,D14,1,K*%
%TO.N,ROW1*%
X78604105Y79049723D03*
%TD*%
%TO.P,D13,1,K*%
%TO.N,ROW2*%
X75964143Y69197277D03*
%TD*%
%TO.P,D12,1,K*%
%TO.N,ROW0*%
X71329687Y93629263D03*
%TD*%
%TO.P,D11,1,K*%
%TO.N,ROW1*%
X68689736Y83776814D03*
%TD*%
%TO.P,D10,1,K*%
%TO.N,ROW2*%
X66049778Y73924378D03*
%TD*%
%TO.P,D9,1,K*%
%TO.N,ROW0*%
X61557678Y98887616D03*
%TD*%
%TO.P,D8,1,K*%
%TO.N,ROW1*%
X58917731Y89035175D03*
%TD*%
%TO.P,D7,1,K*%
%TO.N,ROW2*%
X56277772Y79182729D03*
%TD*%
%TO.P,D6,1,K*%
%TO.N,ROW0*%
X48670141Y96601756D03*
%TD*%
%TO.P,D5,1,K*%
%TO.N,ROW1*%
X46549448Y86624663D03*
%TD*%
%TO.P,D4,1,K*%
%TO.N,ROW2*%
X44428754Y76647543D03*
%TD*%
%TO.P,D3,1,K*%
%TO.N,ROW0*%
X35192411Y91034950D03*
%TD*%
%TO.P,D2,1,K*%
%TO.N,ROW1*%
X33772851Y80934212D03*
%TD*%
%TO.P,D1,1,K*%
%TO.N,ROW2*%
X32353285Y70833471D03*
%TD*%
D14*
%TO.N,ROW2*%
X81900000Y69150000D03*
%TO.N,COL0*%
X102046046Y59385766D03*
X102050000Y68250000D03*
%TO.N,COL1*%
X99525000Y59950500D03*
X99525000Y67485217D03*
%TO.N,COL2*%
X96975000Y60675731D03*
X96978953Y66760717D03*
%TO.N,COL3*%
X94425000Y61435651D03*
X94418282Y66980976D03*
%TO.N,COL4*%
X91891218Y67192225D03*
%TO.N,COL0*%
X157322936Y74481348D03*
%TD*%
D15*
%TO.N,ROW6*%
X106011649Y79013351D02*
X104603476Y79013351D01*
X109625000Y75400000D02*
X106011649Y79013351D01*
X109625000Y71353390D02*
X109625000Y75400000D01*
X113095905Y67882485D02*
X109625000Y71353390D01*
%TO.N,ROW5*%
X106637527Y81553351D02*
X104603476Y81553351D01*
X110455959Y77734919D02*
X106637527Y81553351D01*
%TO.N,ROW4*%
X107816012Y87587373D02*
X107816012Y87305887D01*
X107816012Y87305887D02*
X104603476Y84093351D01*
%TO.N,ROW2*%
X81852723Y69197277D02*
X81900000Y69150000D01*
X75964143Y69197277D02*
X81852723Y69197277D01*
%TO.N,ROW1*%
X86859848Y79049723D02*
X89363476Y81553351D01*
X78604105Y79049723D02*
X86859848Y79049723D01*
%TO.N,ROW0*%
X81244048Y88902165D02*
X84554662Y88902165D01*
X84554662Y88902165D02*
X89363476Y84093351D01*
%TO.N,COL4*%
X115123547Y65101202D02*
X116186053Y66163708D01*
X96939849Y62160151D02*
X104147390Y62160151D01*
X91907775Y67192225D02*
X96939849Y62160151D01*
X104147390Y62160151D02*
X115123547Y65101202D01*
X91891218Y67192225D02*
X91907775Y67192225D01*
%TO.N,COL0*%
X102434249Y59773969D02*
X102046046Y59385766D01*
X148766470Y74210804D02*
X148766470Y73215614D01*
X148766470Y73215614D02*
X146928169Y71377313D01*
X146928169Y71377313D02*
X145738518Y71377313D01*
X157322936Y74481348D02*
X148495926Y74481348D01*
X148495926Y74481348D02*
X148766470Y74210804D01*
X145738518Y71377313D02*
X102434249Y59773969D01*
X99789866Y68250000D02*
X102050000Y68250000D01*
X99787694Y68247828D02*
X99789866Y68250000D01*
X95966899Y68247828D02*
X99787694Y68247828D01*
%TO.N,COL1*%
X99400012Y67360229D02*
X99525000Y67485217D01*
X97540801Y67360229D02*
X99400012Y67360229D01*
X101354404Y59950500D02*
X99525000Y59950500D01*
X147565169Y73713209D02*
X145679273Y71827313D01*
X145679273Y71827313D02*
X101354404Y59950500D01*
%TO.N,COL2*%
X59367918Y80901506D02*
X69386540Y78217025D01*
X69386540Y78217025D02*
X71436227Y74666858D01*
X71436227Y74666858D02*
X80142361Y72334059D01*
X80142361Y72334059D02*
X80673611Y71413909D01*
X80673611Y71413909D02*
X96975000Y67045964D01*
X96975000Y67045964D02*
X97260247Y66760717D01*
X96975000Y66764670D02*
X96975000Y67045964D01*
X96978953Y66760717D02*
X96975000Y66764670D01*
%TO.N,COL4*%
X79921816Y70916054D02*
X79054294Y70916054D01*
X91559784Y67565216D02*
X80080585Y70641058D01*
X91900000Y67225000D02*
X91559784Y67565216D01*
X91900000Y67201007D02*
X91900000Y67225000D01*
X91891218Y67192225D02*
X91900000Y67201007D01*
X80080585Y70641058D02*
X79921816Y70916054D01*
%TO.N,COL3*%
X69704696Y74664948D02*
X69139927Y75643150D01*
X79845850Y71947634D02*
X69704696Y74664948D01*
X94450000Y67256660D02*
X80377099Y71027482D01*
X94418282Y66980976D02*
X94418282Y67224942D01*
X94418282Y67224942D02*
X94450000Y67256660D01*
X80377099Y71027482D02*
X79845850Y71947634D01*
%TO.N,COL2*%
X131487455Y68554157D02*
X135872430Y76149164D01*
X102082050Y60675000D02*
X131487455Y68554157D01*
X96975731Y60675000D02*
X102082050Y60675000D01*
X96975000Y60675731D02*
X96975731Y60675000D01*
%TO.N,COL3*%
X103674997Y61567697D02*
X103675000Y61567700D01*
X94425000Y61435651D02*
X94460420Y61400231D01*
X103050000Y61400231D02*
X103674997Y61567697D01*
X94460420Y61400231D02*
X103050000Y61400231D01*
X123836774Y66970028D02*
X103675000Y61567700D01*
%TO.N,COL0*%
X81266642Y72186751D02*
X95966899Y68247828D01*
X80735394Y73106902D02*
X81266642Y72186751D01*
X72029254Y75439705D02*
X80735394Y73106902D01*
X69979565Y78989873D02*
X72029254Y75439705D01*
X60455987Y82319513D02*
X60987236Y81399362D01*
X60987236Y81399362D02*
X69979565Y78989873D01*
X59019371Y82704452D02*
X60455987Y82319513D01*
X51877667Y78581189D02*
X59019371Y82704452D01*
X35210932Y72916031D02*
X47196030Y79835631D01*
X47196030Y79835631D02*
X51877667Y78581189D01*
%TO.N,COL1*%
X80970125Y71800330D02*
X97540801Y67360229D01*
X80438876Y72720480D02*
X80970125Y71800330D01*
X60159478Y81933087D02*
X60690727Y81012933D01*
X59082945Y82221542D02*
X60159478Y81933087D01*
X69683044Y78603443D02*
X71732740Y75053282D01*
X51015199Y77563623D02*
X59082945Y82221542D01*
X60690727Y81012933D02*
X69683044Y78603443D01*
X47424711Y78525693D02*
X51015199Y77563623D01*
X71732740Y75053282D02*
X80438876Y72720480D01*
%TO.N,COL3*%
X126100421Y70890792D02*
X123836774Y66970028D01*
%TO.N,ROW3*%
X83780168Y51199956D02*
X73749120Y55877513D01*
X73749120Y55877513D02*
X73471420Y56640478D01*
%TO.N,ROW2*%
X36027891Y70317045D02*
X44428749Y76647549D01*
X32353290Y70833471D02*
X36027891Y70317045D01*
%TO.N,ROW1*%
X38176644Y80315294D02*
X46549448Y86624660D01*
X33772848Y80934210D02*
X38176644Y80315294D01*
%TO.N,ROW0*%
X47462555Y96771468D02*
X48670140Y96601752D01*
X39117835Y90483270D02*
X47462555Y96771468D01*
X35192410Y91034950D02*
X39117835Y90483270D01*
%TO.N,ROW2*%
X50414689Y75375196D02*
X56277774Y79182726D01*
X44428750Y76647548D02*
X50414689Y75375196D01*
%TO.N,ROW1*%
X53071227Y85238413D02*
X58917728Y89035171D01*
X46549450Y86624660D02*
X53071227Y85238413D01*
%TO.N,ROW0*%
X55727751Y95101616D02*
X61557677Y98887622D01*
X48670146Y96601758D02*
X55727751Y95101616D01*
%TO.N,ROW3*%
X62374545Y60208230D02*
X73065461Y57343607D01*
X73065461Y57343607D02*
X73471421Y56640475D01*
%TO.N,ROW2*%
X64246656Y77047472D02*
X56277774Y79182726D01*
X66049782Y73924364D02*
X64246656Y77047472D01*
X74549941Y71646762D02*
X66049782Y73924364D01*
X75964142Y69197277D02*
X74549941Y71646762D01*
%TO.N,ROW1*%
X66886609Y86899925D02*
X58917729Y89035170D01*
X68689735Y83776808D02*
X66886609Y86899925D01*
X77189887Y81499199D02*
X68689735Y83776808D01*
X78604099Y79049718D02*
X77189887Y81499199D01*
%TO.N,ROW0*%
X69526565Y96752360D02*
X61557678Y98887622D01*
X71329693Y93629268D02*
X69526565Y96752360D01*
X81244051Y88902167D02*
X79829845Y91351649D01*
X79829845Y91351649D02*
X71329693Y93629268D01*
%TO.N,ROW7*%
X115091905Y54634557D02*
X115891490Y54493573D01*
X106025507Y48286187D02*
X115091905Y54634557D01*
X116654450Y54215873D02*
X115891490Y54493565D01*
X126685501Y58893432D02*
X116654450Y54215873D01*
%TO.N,ROW4*%
X153597193Y91372435D02*
X146843964Y96461348D01*
X146843964Y96461348D02*
X140327818Y95545579D01*
X153743984Y90327954D02*
X153597193Y91372435D01*
%TO.N,ROW5*%
X147190986Y86234980D02*
X142448528Y85568466D01*
X155163556Y80227212D02*
X147190986Y86234980D01*
%TO.N,ROW6*%
X139021461Y79194105D02*
X132782285Y77867940D01*
X144569215Y75591353D02*
X139021461Y79194105D01*
%TO.N,ROW5*%
X136917344Y89160452D02*
X130142335Y87720375D01*
X142448524Y85568465D02*
X136917344Y89160452D01*
%TO.N,ROW4*%
X140327820Y95545574D02*
X134813221Y99126784D01*
X134813221Y99126784D02*
X127502381Y97572828D01*
%TO.N,ROW6*%
X130979171Y74744827D02*
X132782287Y77867938D01*
X123010279Y72609578D02*
X130979171Y74744827D01*
X121596071Y70160083D02*
X123010279Y72609578D01*
X113095898Y67882479D02*
X121596071Y70160083D01*
%TO.N,ROW5*%
X128339206Y84597279D02*
X130142333Y87720379D01*
X120370318Y82462013D02*
X128339206Y84597279D01*
X118956107Y80012523D02*
X120370318Y82462013D01*
X110455965Y77734924D02*
X118956107Y80012523D01*
%TO.N,ROW4*%
X117730368Y92314455D02*
X125699253Y94449721D01*
X125699253Y94449721D02*
X127502382Y97572828D01*
X116316151Y89864980D02*
X117730368Y92314455D01*
X107816007Y87587365D02*
X116316151Y89864980D01*
%TD*%
M02*
