%TF.GenerationSoftware,KiCad,Pcbnew,7.0.6*%
%TF.CreationDate,2025-05-26T00:34:49-04:00*%
%TF.ProjectId,bw2,6277322e-6b69-4636-9164-5f7063625858,2*%
%TF.SameCoordinates,Original*%
%TF.FileFunction,Legend,Top*%
%TF.FilePolarity,Positive*%
%FSLAX46Y46*%
G04 Gerber Fmt 4.6, Leading zero omitted, Abs format (unit mm)*
G04 Created by KiCad (PCBNEW 7.0.6) date 2025-05-26 00:34:49*
%MOMM*%
%LPD*%
G01*
G04 APERTURE LIST*
%ADD10C,0.150000*%
%ADD11C,0.120000*%
%ADD12O,2.600000X1.600000*%
%ADD13O,1.600000X2.600000*%
%ADD14C,2.300000*%
%ADD15C,1.852600*%
G04 APERTURE END LIST*
D10*
X86074077Y86972758D02*
X86109791Y87008472D01*
X86109791Y87008472D02*
X86181220Y87044186D01*
X86181220Y87044186D02*
X86359791Y87044186D01*
X86359791Y87044186D02*
X86431220Y87008472D01*
X86431220Y87008472D02*
X86466934Y86972758D01*
X86466934Y86972758D02*
X86502648Y86901329D01*
X86502648Y86901329D02*
X86502648Y86829901D01*
X86502648Y86829901D02*
X86466934Y86722758D01*
X86466934Y86722758D02*
X86038362Y86294186D01*
X86038362Y86294186D02*
X86502648Y86294186D01*
X86931220Y86722758D02*
X86859791Y86758472D01*
X86859791Y86758472D02*
X86824077Y86794186D01*
X86824077Y86794186D02*
X86788363Y86865615D01*
X86788363Y86865615D02*
X86788363Y86901329D01*
X86788363Y86901329D02*
X86824077Y86972758D01*
X86824077Y86972758D02*
X86859791Y87008472D01*
X86859791Y87008472D02*
X86931220Y87044186D01*
X86931220Y87044186D02*
X87074077Y87044186D01*
X87074077Y87044186D02*
X87145506Y87008472D01*
X87145506Y87008472D02*
X87181220Y86972758D01*
X87181220Y86972758D02*
X87216934Y86901329D01*
X87216934Y86901329D02*
X87216934Y86865615D01*
X87216934Y86865615D02*
X87181220Y86794186D01*
X87181220Y86794186D02*
X87145506Y86758472D01*
X87145506Y86758472D02*
X87074077Y86722758D01*
X87074077Y86722758D02*
X86931220Y86722758D01*
X86931220Y86722758D02*
X86859791Y86687043D01*
X86859791Y86687043D02*
X86824077Y86651329D01*
X86824077Y86651329D02*
X86788363Y86579901D01*
X86788363Y86579901D02*
X86788363Y86437043D01*
X86788363Y86437043D02*
X86824077Y86365615D01*
X86824077Y86365615D02*
X86859791Y86329901D01*
X86859791Y86329901D02*
X86931220Y86294186D01*
X86931220Y86294186D02*
X87074077Y86294186D01*
X87074077Y86294186D02*
X87145506Y86329901D01*
X87145506Y86329901D02*
X87181220Y86365615D01*
X87181220Y86365615D02*
X87216934Y86437043D01*
X87216934Y86437043D02*
X87216934Y86579901D01*
X87216934Y86579901D02*
X87181220Y86651329D01*
X87181220Y86651329D02*
X87145506Y86687043D01*
X87145506Y86687043D02*
X87074077Y86722758D01*
X91760618Y73594186D02*
X91332047Y73594186D01*
X91546332Y73594186D02*
X91546332Y74344186D01*
X91546332Y74344186D02*
X91474904Y74237043D01*
X91474904Y74237043D02*
X91403475Y74165615D01*
X91403475Y74165615D02*
X91332047Y74129901D01*
X92010618Y74344186D02*
X92474904Y74344186D01*
X92474904Y74344186D02*
X92224904Y74058472D01*
X92224904Y74058472D02*
X92332047Y74058472D01*
X92332047Y74058472D02*
X92403476Y74022758D01*
X92403476Y74022758D02*
X92439190Y73987043D01*
X92439190Y73987043D02*
X92474904Y73915615D01*
X92474904Y73915615D02*
X92474904Y73737043D01*
X92474904Y73737043D02*
X92439190Y73665615D01*
X92439190Y73665615D02*
X92403476Y73629901D01*
X92403476Y73629901D02*
X92332047Y73594186D01*
X92332047Y73594186D02*
X92117761Y73594186D01*
X92117761Y73594186D02*
X92046333Y73629901D01*
X92046333Y73629901D02*
X92010618Y73665615D01*
X101920618Y73594186D02*
X102063475Y73594186D01*
X102063475Y73594186D02*
X102134904Y73629901D01*
X102134904Y73629901D02*
X102170618Y73665615D01*
X102170618Y73665615D02*
X102242047Y73772758D01*
X102242047Y73772758D02*
X102277761Y73915615D01*
X102277761Y73915615D02*
X102277761Y74201329D01*
X102277761Y74201329D02*
X102242047Y74272758D01*
X102242047Y74272758D02*
X102206333Y74308472D01*
X102206333Y74308472D02*
X102134904Y74344186D01*
X102134904Y74344186D02*
X101992047Y74344186D01*
X101992047Y74344186D02*
X101920618Y74308472D01*
X101920618Y74308472D02*
X101884904Y74272758D01*
X101884904Y74272758D02*
X101849190Y74201329D01*
X101849190Y74201329D02*
X101849190Y74022758D01*
X101849190Y74022758D02*
X101884904Y73951329D01*
X101884904Y73951329D02*
X101920618Y73915615D01*
X101920618Y73915615D02*
X101992047Y73879901D01*
X101992047Y73879901D02*
X102134904Y73879901D01*
X102134904Y73879901D02*
X102206333Y73915615D01*
X102206333Y73915615D02*
X102242047Y73951329D01*
X102242047Y73951329D02*
X102277761Y74022758D01*
X86074077Y84432758D02*
X86109791Y84468472D01*
X86109791Y84468472D02*
X86181220Y84504186D01*
X86181220Y84504186D02*
X86359791Y84504186D01*
X86359791Y84504186D02*
X86431220Y84468472D01*
X86431220Y84468472D02*
X86466934Y84432758D01*
X86466934Y84432758D02*
X86502648Y84361329D01*
X86502648Y84361329D02*
X86502648Y84289901D01*
X86502648Y84289901D02*
X86466934Y84182758D01*
X86466934Y84182758D02*
X86038362Y83754186D01*
X86038362Y83754186D02*
X86502648Y83754186D01*
X86752648Y84504186D02*
X87252648Y84504186D01*
X87252648Y84504186D02*
X86931220Y83754186D01*
X106928588Y97204186D02*
X107000017Y97204186D01*
X107000017Y97204186D02*
X107071445Y97168472D01*
X107071445Y97168472D02*
X107107160Y97132758D01*
X107107160Y97132758D02*
X107142874Y97061329D01*
X107142874Y97061329D02*
X107178588Y96918472D01*
X107178588Y96918472D02*
X107178588Y96739901D01*
X107178588Y96739901D02*
X107142874Y96597043D01*
X107142874Y96597043D02*
X107107160Y96525615D01*
X107107160Y96525615D02*
X107071445Y96489901D01*
X107071445Y96489901D02*
X107000017Y96454186D01*
X107000017Y96454186D02*
X106928588Y96454186D01*
X106928588Y96454186D02*
X106857160Y96489901D01*
X106857160Y96489901D02*
X106821445Y96525615D01*
X106821445Y96525615D02*
X106785731Y96597043D01*
X106785731Y96597043D02*
X106750017Y96739901D01*
X106750017Y96739901D02*
X106750017Y96918472D01*
X106750017Y96918472D02*
X106785731Y97061329D01*
X106785731Y97061329D02*
X106821445Y97132758D01*
X106821445Y97132758D02*
X106857160Y97168472D01*
X106857160Y97168472D02*
X106928588Y97204186D01*
X86502648Y78674186D02*
X86074077Y78674186D01*
X86288362Y78674186D02*
X86288362Y79424186D01*
X86288362Y79424186D02*
X86216934Y79317043D01*
X86216934Y79317043D02*
X86145505Y79245615D01*
X86145505Y79245615D02*
X86074077Y79209901D01*
X87181220Y79424186D02*
X86824077Y79424186D01*
X86824077Y79424186D02*
X86788363Y79067043D01*
X86788363Y79067043D02*
X86824077Y79102758D01*
X86824077Y79102758D02*
X86895506Y79138472D01*
X86895506Y79138472D02*
X87074077Y79138472D01*
X87074077Y79138472D02*
X87145506Y79102758D01*
X87145506Y79102758D02*
X87181220Y79067043D01*
X87181220Y79067043D02*
X87216934Y78995615D01*
X87216934Y78995615D02*
X87216934Y78817043D01*
X87216934Y78817043D02*
X87181220Y78745615D01*
X87181220Y78745615D02*
X87145506Y78709901D01*
X87145506Y78709901D02*
X87074077Y78674186D01*
X87074077Y78674186D02*
X86895506Y78674186D01*
X86895506Y78674186D02*
X86824077Y78709901D01*
X86824077Y78709901D02*
X86788363Y78745615D01*
X99380618Y73594186D02*
X98952047Y73594186D01*
X99166332Y73594186D02*
X99166332Y74344186D01*
X99166332Y74344186D02*
X99094904Y74237043D01*
X99094904Y74237043D02*
X99023475Y74165615D01*
X99023475Y74165615D02*
X98952047Y74129901D01*
X99844904Y74344186D02*
X99916333Y74344186D01*
X99916333Y74344186D02*
X99987761Y74308472D01*
X99987761Y74308472D02*
X100023476Y74272758D01*
X100023476Y74272758D02*
X100059190Y74201329D01*
X100059190Y74201329D02*
X100094904Y74058472D01*
X100094904Y74058472D02*
X100094904Y73879901D01*
X100094904Y73879901D02*
X100059190Y73737043D01*
X100059190Y73737043D02*
X100023476Y73665615D01*
X100023476Y73665615D02*
X99987761Y73629901D01*
X99987761Y73629901D02*
X99916333Y73594186D01*
X99916333Y73594186D02*
X99844904Y73594186D01*
X99844904Y73594186D02*
X99773476Y73629901D01*
X99773476Y73629901D02*
X99737761Y73665615D01*
X99737761Y73665615D02*
X99702047Y73737043D01*
X99702047Y73737043D02*
X99666333Y73879901D01*
X99666333Y73879901D02*
X99666333Y74058472D01*
X99666333Y74058472D02*
X99702047Y74201329D01*
X99702047Y74201329D02*
X99737761Y74272758D01*
X99737761Y74272758D02*
X99773476Y74308472D01*
X99773476Y74308472D02*
X99844904Y74344186D01*
X96840618Y73594186D02*
X96412047Y73594186D01*
X96626332Y73594186D02*
X96626332Y74344186D01*
X96626332Y74344186D02*
X96554904Y74237043D01*
X96554904Y74237043D02*
X96483475Y74165615D01*
X96483475Y74165615D02*
X96412047Y74129901D01*
X97554904Y73594186D02*
X97126333Y73594186D01*
X97340618Y73594186D02*
X97340618Y74344186D01*
X97340618Y74344186D02*
X97269190Y74237043D01*
X97269190Y74237043D02*
X97197761Y74165615D01*
X97197761Y74165615D02*
X97126333Y74129901D01*
X86502648Y76134186D02*
X86074077Y76134186D01*
X86288362Y76134186D02*
X86288362Y76884186D01*
X86288362Y76884186D02*
X86216934Y76777043D01*
X86216934Y76777043D02*
X86145505Y76705615D01*
X86145505Y76705615D02*
X86074077Y76669901D01*
X87145506Y76634186D02*
X87145506Y76134186D01*
X86966934Y76919901D02*
X86788363Y76384186D01*
X86788363Y76384186D02*
X87252648Y76384186D01*
X85645506Y94628472D02*
X85574078Y94664186D01*
X85574078Y94664186D02*
X85466935Y94664186D01*
X85466935Y94664186D02*
X85359792Y94628472D01*
X85359792Y94628472D02*
X85288363Y94557043D01*
X85288363Y94557043D02*
X85252649Y94485615D01*
X85252649Y94485615D02*
X85216935Y94342758D01*
X85216935Y94342758D02*
X85216935Y94235615D01*
X85216935Y94235615D02*
X85252649Y94092758D01*
X85252649Y94092758D02*
X85288363Y94021329D01*
X85288363Y94021329D02*
X85359792Y93949901D01*
X85359792Y93949901D02*
X85466935Y93914186D01*
X85466935Y93914186D02*
X85538363Y93914186D01*
X85538363Y93914186D02*
X85645506Y93949901D01*
X85645506Y93949901D02*
X85681220Y93985615D01*
X85681220Y93985615D02*
X85681220Y94235615D01*
X85681220Y94235615D02*
X85538363Y94235615D01*
X86002649Y93914186D02*
X86002649Y94664186D01*
X86002649Y94664186D02*
X86431220Y93914186D01*
X86431220Y93914186D02*
X86431220Y94664186D01*
X86788363Y93914186D02*
X86788363Y94664186D01*
X86788363Y94664186D02*
X86966934Y94664186D01*
X86966934Y94664186D02*
X87074077Y94628472D01*
X87074077Y94628472D02*
X87145506Y94557043D01*
X87145506Y94557043D02*
X87181220Y94485615D01*
X87181220Y94485615D02*
X87216934Y94342758D01*
X87216934Y94342758D02*
X87216934Y94235615D01*
X87216934Y94235615D02*
X87181220Y94092758D01*
X87181220Y94092758D02*
X87145506Y94021329D01*
X87145506Y94021329D02*
X87074077Y93949901D01*
X87074077Y93949901D02*
X86966934Y93914186D01*
X86966934Y93914186D02*
X86788363Y93914186D01*
X86538363Y97204186D02*
X86181220Y97204186D01*
X86181220Y97204186D02*
X86145506Y96847043D01*
X86145506Y96847043D02*
X86181220Y96882758D01*
X86181220Y96882758D02*
X86252649Y96918472D01*
X86252649Y96918472D02*
X86431220Y96918472D01*
X86431220Y96918472D02*
X86502649Y96882758D01*
X86502649Y96882758D02*
X86538363Y96847043D01*
X86538363Y96847043D02*
X86574077Y96775615D01*
X86574077Y96775615D02*
X86574077Y96597043D01*
X86574077Y96597043D02*
X86538363Y96525615D01*
X86538363Y96525615D02*
X86502649Y96489901D01*
X86502649Y96489901D02*
X86431220Y96454186D01*
X86431220Y96454186D02*
X86252649Y96454186D01*
X86252649Y96454186D02*
X86181220Y96489901D01*
X86181220Y96489901D02*
X86145506Y96525615D01*
X86788363Y97204186D02*
X87038363Y96454186D01*
X87038363Y96454186D02*
X87288363Y97204186D01*
X107107160Y86794186D02*
X107107160Y86294186D01*
X106928588Y87079901D02*
X106750017Y86544186D01*
X106750017Y86544186D02*
X107214302Y86544186D01*
X86074077Y89512758D02*
X86109791Y89548472D01*
X86109791Y89548472D02*
X86181220Y89584186D01*
X86181220Y89584186D02*
X86359791Y89584186D01*
X86359791Y89584186D02*
X86431220Y89548472D01*
X86431220Y89548472D02*
X86466934Y89512758D01*
X86466934Y89512758D02*
X86502648Y89441329D01*
X86502648Y89441329D02*
X86502648Y89369901D01*
X86502648Y89369901D02*
X86466934Y89262758D01*
X86466934Y89262758D02*
X86038362Y88834186D01*
X86038362Y88834186D02*
X86502648Y88834186D01*
X86859791Y88834186D02*
X87002648Y88834186D01*
X87002648Y88834186D02*
X87074077Y88869901D01*
X87074077Y88869901D02*
X87109791Y88905615D01*
X87109791Y88905615D02*
X87181220Y89012758D01*
X87181220Y89012758D02*
X87216934Y89155615D01*
X87216934Y89155615D02*
X87216934Y89441329D01*
X87216934Y89441329D02*
X87181220Y89512758D01*
X87181220Y89512758D02*
X87145506Y89548472D01*
X87145506Y89548472D02*
X87074077Y89584186D01*
X87074077Y89584186D02*
X86931220Y89584186D01*
X86931220Y89584186D02*
X86859791Y89548472D01*
X86859791Y89548472D02*
X86824077Y89512758D01*
X86824077Y89512758D02*
X86788363Y89441329D01*
X86788363Y89441329D02*
X86788363Y89262758D01*
X86788363Y89262758D02*
X86824077Y89191329D01*
X86824077Y89191329D02*
X86859791Y89155615D01*
X86859791Y89155615D02*
X86931220Y89119901D01*
X86931220Y89119901D02*
X87074077Y89119901D01*
X87074077Y89119901D02*
X87145506Y89155615D01*
X87145506Y89155615D02*
X87181220Y89191329D01*
X87181220Y89191329D02*
X87216934Y89262758D01*
X106714302Y89584186D02*
X107178588Y89584186D01*
X107178588Y89584186D02*
X106928588Y89298472D01*
X106928588Y89298472D02*
X107035731Y89298472D01*
X107035731Y89298472D02*
X107107160Y89262758D01*
X107107160Y89262758D02*
X107142874Y89227043D01*
X107142874Y89227043D02*
X107178588Y89155615D01*
X107178588Y89155615D02*
X107178588Y88977043D01*
X107178588Y88977043D02*
X107142874Y88905615D01*
X107142874Y88905615D02*
X107107160Y88869901D01*
X107107160Y88869901D02*
X107035731Y88834186D01*
X107035731Y88834186D02*
X106821445Y88834186D01*
X106821445Y88834186D02*
X106750017Y88869901D01*
X106750017Y88869901D02*
X106714302Y88905615D01*
X86074077Y81892758D02*
X86109791Y81928472D01*
X86109791Y81928472D02*
X86181220Y81964186D01*
X86181220Y81964186D02*
X86359791Y81964186D01*
X86359791Y81964186D02*
X86431220Y81928472D01*
X86431220Y81928472D02*
X86466934Y81892758D01*
X86466934Y81892758D02*
X86502648Y81821329D01*
X86502648Y81821329D02*
X86502648Y81749901D01*
X86502648Y81749901D02*
X86466934Y81642758D01*
X86466934Y81642758D02*
X86038362Y81214186D01*
X86038362Y81214186D02*
X86502648Y81214186D01*
X87145506Y81964186D02*
X87002648Y81964186D01*
X87002648Y81964186D02*
X86931220Y81928472D01*
X86931220Y81928472D02*
X86895506Y81892758D01*
X86895506Y81892758D02*
X86824077Y81785615D01*
X86824077Y81785615D02*
X86788363Y81642758D01*
X86788363Y81642758D02*
X86788363Y81357043D01*
X86788363Y81357043D02*
X86824077Y81285615D01*
X86824077Y81285615D02*
X86859791Y81249901D01*
X86859791Y81249901D02*
X86931220Y81214186D01*
X86931220Y81214186D02*
X87074077Y81214186D01*
X87074077Y81214186D02*
X87145506Y81249901D01*
X87145506Y81249901D02*
X87181220Y81285615D01*
X87181220Y81285615D02*
X87216934Y81357043D01*
X87216934Y81357043D02*
X87216934Y81535615D01*
X87216934Y81535615D02*
X87181220Y81607043D01*
X87181220Y81607043D02*
X87145506Y81642758D01*
X87145506Y81642758D02*
X87074077Y81678472D01*
X87074077Y81678472D02*
X86931220Y81678472D01*
X86931220Y81678472D02*
X86859791Y81642758D01*
X86859791Y81642758D02*
X86824077Y81607043D01*
X86824077Y81607043D02*
X86788363Y81535615D01*
X85395505Y92124186D02*
X85859791Y92124186D01*
X85859791Y92124186D02*
X85609791Y91838472D01*
X85609791Y91838472D02*
X85716934Y91838472D01*
X85716934Y91838472D02*
X85788363Y91802758D01*
X85788363Y91802758D02*
X85824077Y91767043D01*
X85824077Y91767043D02*
X85859791Y91695615D01*
X85859791Y91695615D02*
X85859791Y91517043D01*
X85859791Y91517043D02*
X85824077Y91445615D01*
X85824077Y91445615D02*
X85788363Y91409901D01*
X85788363Y91409901D02*
X85716934Y91374186D01*
X85716934Y91374186D02*
X85502648Y91374186D01*
X85502648Y91374186D02*
X85431220Y91409901D01*
X85431220Y91409901D02*
X85395505Y91445615D01*
X86074077Y92124186D02*
X86324077Y91374186D01*
X86324077Y91374186D02*
X86574077Y92124186D01*
X86752648Y92124186D02*
X87216934Y92124186D01*
X87216934Y92124186D02*
X86966934Y91838472D01*
X86966934Y91838472D02*
X87074077Y91838472D01*
X87074077Y91838472D02*
X87145506Y91802758D01*
X87145506Y91802758D02*
X87181220Y91767043D01*
X87181220Y91767043D02*
X87216934Y91695615D01*
X87216934Y91695615D02*
X87216934Y91517043D01*
X87216934Y91517043D02*
X87181220Y91445615D01*
X87181220Y91445615D02*
X87145506Y91409901D01*
X87145506Y91409901D02*
X87074077Y91374186D01*
X87074077Y91374186D02*
X86859791Y91374186D01*
X86859791Y91374186D02*
X86788363Y91409901D01*
X86788363Y91409901D02*
X86752648Y91445615D01*
X106892874Y76562758D02*
X106821445Y76598472D01*
X106821445Y76598472D02*
X106785731Y76634186D01*
X106785731Y76634186D02*
X106750017Y76705615D01*
X106750017Y76705615D02*
X106750017Y76741329D01*
X106750017Y76741329D02*
X106785731Y76812758D01*
X106785731Y76812758D02*
X106821445Y76848472D01*
X106821445Y76848472D02*
X106892874Y76884186D01*
X106892874Y76884186D02*
X107035731Y76884186D01*
X107035731Y76884186D02*
X107107160Y76848472D01*
X107107160Y76848472D02*
X107142874Y76812758D01*
X107142874Y76812758D02*
X107178588Y76741329D01*
X107178588Y76741329D02*
X107178588Y76705615D01*
X107178588Y76705615D02*
X107142874Y76634186D01*
X107142874Y76634186D02*
X107107160Y76598472D01*
X107107160Y76598472D02*
X107035731Y76562758D01*
X107035731Y76562758D02*
X106892874Y76562758D01*
X106892874Y76562758D02*
X106821445Y76527043D01*
X106821445Y76527043D02*
X106785731Y76491329D01*
X106785731Y76491329D02*
X106750017Y76419901D01*
X106750017Y76419901D02*
X106750017Y76277043D01*
X106750017Y76277043D02*
X106785731Y76205615D01*
X106785731Y76205615D02*
X106821445Y76169901D01*
X106821445Y76169901D02*
X106892874Y76134186D01*
X106892874Y76134186D02*
X107035731Y76134186D01*
X107035731Y76134186D02*
X107107160Y76169901D01*
X107107160Y76169901D02*
X107142874Y76205615D01*
X107142874Y76205615D02*
X107178588Y76277043D01*
X107178588Y76277043D02*
X107178588Y76419901D01*
X107178588Y76419901D02*
X107142874Y76491329D01*
X107142874Y76491329D02*
X107107160Y76527043D01*
X107107160Y76527043D02*
X107035731Y76562758D01*
X107142874Y84504186D02*
X106785731Y84504186D01*
X106785731Y84504186D02*
X106750017Y84147043D01*
X106750017Y84147043D02*
X106785731Y84182758D01*
X106785731Y84182758D02*
X106857160Y84218472D01*
X106857160Y84218472D02*
X107035731Y84218472D01*
X107035731Y84218472D02*
X107107160Y84182758D01*
X107107160Y84182758D02*
X107142874Y84147043D01*
X107142874Y84147043D02*
X107178588Y84075615D01*
X107178588Y84075615D02*
X107178588Y83897043D01*
X107178588Y83897043D02*
X107142874Y83825615D01*
X107142874Y83825615D02*
X107107160Y83789901D01*
X107107160Y83789901D02*
X107035731Y83754186D01*
X107035731Y83754186D02*
X106857160Y83754186D01*
X106857160Y83754186D02*
X106785731Y83789901D01*
X106785731Y83789901D02*
X106750017Y83825615D01*
X106714302Y79424186D02*
X107214302Y79424186D01*
X107214302Y79424186D02*
X106892874Y78674186D01*
X94300618Y73594186D02*
X93872047Y73594186D01*
X94086332Y73594186D02*
X94086332Y74344186D01*
X94086332Y74344186D02*
X94014904Y74237043D01*
X94014904Y74237043D02*
X93943475Y74165615D01*
X93943475Y74165615D02*
X93872047Y74129901D01*
X94586333Y74272758D02*
X94622047Y74308472D01*
X94622047Y74308472D02*
X94693476Y74344186D01*
X94693476Y74344186D02*
X94872047Y74344186D01*
X94872047Y74344186D02*
X94943476Y74308472D01*
X94943476Y74308472D02*
X94979190Y74272758D01*
X94979190Y74272758D02*
X95014904Y74201329D01*
X95014904Y74201329D02*
X95014904Y74129901D01*
X95014904Y74129901D02*
X94979190Y74022758D01*
X94979190Y74022758D02*
X94550618Y73594186D01*
X94550618Y73594186D02*
X95014904Y73594186D01*
X106750017Y92052758D02*
X106785731Y92088472D01*
X106785731Y92088472D02*
X106857160Y92124186D01*
X106857160Y92124186D02*
X107035731Y92124186D01*
X107035731Y92124186D02*
X107107160Y92088472D01*
X107107160Y92088472D02*
X107142874Y92052758D01*
X107142874Y92052758D02*
X107178588Y91981329D01*
X107178588Y91981329D02*
X107178588Y91909901D01*
X107178588Y91909901D02*
X107142874Y91802758D01*
X107142874Y91802758D02*
X106714302Y91374186D01*
X106714302Y91374186D02*
X107178588Y91374186D01*
X107178588Y93914186D02*
X106750017Y93914186D01*
X106964302Y93914186D02*
X106964302Y94664186D01*
X106964302Y94664186D02*
X106892874Y94557043D01*
X106892874Y94557043D02*
X106821445Y94485615D01*
X106821445Y94485615D02*
X106750017Y94449901D01*
X107107160Y81964186D02*
X106964302Y81964186D01*
X106964302Y81964186D02*
X106892874Y81928472D01*
X106892874Y81928472D02*
X106857160Y81892758D01*
X106857160Y81892758D02*
X106785731Y81785615D01*
X106785731Y81785615D02*
X106750017Y81642758D01*
X106750017Y81642758D02*
X106750017Y81357043D01*
X106750017Y81357043D02*
X106785731Y81285615D01*
X106785731Y81285615D02*
X106821445Y81249901D01*
X106821445Y81249901D02*
X106892874Y81214186D01*
X106892874Y81214186D02*
X107035731Y81214186D01*
X107035731Y81214186D02*
X107107160Y81249901D01*
X107107160Y81249901D02*
X107142874Y81285615D01*
X107142874Y81285615D02*
X107178588Y81357043D01*
X107178588Y81357043D02*
X107178588Y81535615D01*
X107178588Y81535615D02*
X107142874Y81607043D01*
X107142874Y81607043D02*
X107107160Y81642758D01*
X107107160Y81642758D02*
X107035731Y81678472D01*
X107035731Y81678472D02*
X106892874Y81678472D01*
X106892874Y81678472D02*
X106821445Y81642758D01*
X106821445Y81642758D02*
X106785731Y81607043D01*
X106785731Y81607043D02*
X106750017Y81535615D01*
D11*
%TO.C,SW36*%
X108844188Y54445887D02*
X109601309Y53364606D01*
X109876626Y52971413D02*
X110633746Y51890133D01*
X110909063Y51496940D02*
X111666184Y50415659D01*
X111941501Y50022466D02*
X112698621Y48941185D01*
X112704931Y48932174D02*
X111623650Y48175053D01*
X111230457Y47899736D02*
X110149177Y47142615D01*
X109755984Y46867299D02*
X108674703Y46110178D01*
X108281510Y45834861D02*
X107200229Y45077740D01*
X107191219Y45071431D02*
X106434098Y46152712D01*
X106158781Y46545905D02*
X105401661Y47627185D01*
X105126344Y48020378D02*
X104369223Y49101659D01*
X104093906Y49494852D02*
X103336786Y50576133D01*
X103330476Y50585144D02*
X104411757Y51342265D01*
X104804950Y51617582D02*
X105886230Y52374703D01*
X106279423Y52650019D02*
X107360704Y53407140D01*
X107753897Y53682457D02*
X108835178Y54439578D01*
%TO.C,SW35*%
X119736983Y60070235D02*
X120294839Y58873909D01*
X120497696Y58438881D02*
X121055552Y57242555D01*
X121258409Y56807527D02*
X121816265Y55611201D01*
X122019122Y55176173D02*
X122576978Y53979847D01*
X122581627Y53969877D02*
X121385301Y53412021D01*
X120950273Y53209164D02*
X119753947Y52651308D01*
X119318919Y52448452D02*
X118122593Y51890596D01*
X117687565Y51687739D02*
X116491238Y51129883D01*
X116481269Y51125234D02*
X115923413Y52321560D01*
X115720556Y52756588D02*
X115162700Y53952914D01*
X114959843Y54387942D02*
X114401987Y55584268D01*
X114199131Y56019296D02*
X113641274Y57215622D01*
X113636626Y57225591D02*
X114832952Y57783447D01*
X115267980Y57986304D02*
X116464306Y58544160D01*
X116899334Y58747017D02*
X118095660Y59304873D01*
X118530688Y59507730D02*
X119727014Y60065586D01*
%TO.C,SW34*%
X131440959Y63717609D02*
X131782600Y62442587D01*
X131906833Y61978943D02*
X132248474Y60703920D01*
X132372708Y60240276D02*
X132714349Y58965254D01*
X132838582Y58501610D02*
X133180223Y57226587D01*
X133183070Y57215962D02*
X131908048Y56874321D01*
X131444404Y56750088D02*
X130169381Y56408447D01*
X129705737Y56284213D02*
X128430715Y55942572D01*
X127967071Y55818339D02*
X126692048Y55476698D01*
X126681423Y55473851D02*
X126339782Y56748873D01*
X126215549Y57212517D02*
X125873908Y58487540D01*
X125749674Y58951184D02*
X125408033Y60226206D01*
X125283800Y60689850D02*
X124942159Y61964873D01*
X124939312Y61975498D02*
X126214334Y62317139D01*
X126677978Y62441372D02*
X127953001Y62783013D01*
X128416645Y62907247D02*
X129691667Y63248888D01*
X130155311Y63373121D02*
X131430334Y63714762D01*
%TO.C,SW33*%
X81189177Y48828150D02*
X81946298Y49909431D01*
X82221615Y50302624D02*
X82978736Y51383904D01*
X83254052Y51777097D02*
X84011173Y52858378D01*
X84286490Y53251571D02*
X85043611Y54332852D01*
X85049920Y54341862D02*
X86131201Y53584741D01*
X86524394Y53309424D02*
X87605674Y52552304D01*
X87998867Y52276987D02*
X89080148Y51519866D01*
X89473341Y51244549D02*
X90554622Y50487429D01*
X90563633Y50481119D02*
X89806512Y49399838D01*
X89531195Y49006645D02*
X88774074Y47925365D01*
X88498758Y47532172D02*
X87741637Y46450891D01*
X87466320Y46057698D02*
X86709199Y44976417D01*
X86702890Y44967407D02*
X85621609Y45724528D01*
X85228416Y45999845D02*
X84147136Y46756965D01*
X83753943Y47032282D02*
X82672662Y47789403D01*
X82279469Y48064720D02*
X81198188Y48821840D01*
%TO.C,SW32*%
X71331652Y53854784D02*
X71889508Y55051110D01*
X72092365Y55486138D02*
X72650221Y56682464D01*
X72853077Y57117492D02*
X73410933Y58313818D01*
X73613790Y58748846D02*
X74171646Y59945173D01*
X74176295Y59955142D02*
X75372621Y59397286D01*
X75807649Y59194429D02*
X77003975Y58636573D01*
X77439003Y58433716D02*
X78635329Y57875860D01*
X79070357Y57673003D02*
X80266683Y57115147D01*
X80276653Y57110498D02*
X79718797Y55914172D01*
X79515940Y55479144D02*
X78958084Y54282818D01*
X78755227Y53847790D02*
X78197371Y52651464D01*
X77994514Y52216436D02*
X77436658Y51020110D01*
X77432009Y51010141D02*
X76235683Y51567997D01*
X75800655Y51770854D02*
X74604329Y52328710D01*
X74169301Y52531567D02*
X72972975Y53089423D01*
X72537947Y53292279D02*
X71341621Y53850136D01*
%TO.C,SW31*%
X60751024Y57093286D02*
X61092665Y58368308D01*
X61216898Y58831952D02*
X61558539Y60106975D01*
X61682773Y60570619D02*
X62024414Y61845641D01*
X62148647Y62309285D02*
X62490288Y63584308D01*
X62493135Y63594933D02*
X63768157Y63253292D01*
X64231801Y63129059D02*
X65506824Y62787418D01*
X65970468Y62663184D02*
X67245490Y62321543D01*
X67709134Y62197310D02*
X68984157Y61855669D01*
X68994782Y61852822D02*
X68653141Y60577800D01*
X68528908Y60114156D02*
X68187267Y58839133D01*
X68063033Y58375489D02*
X67721392Y57100467D01*
X67597159Y56636823D02*
X67255518Y55361800D01*
X67252671Y55351175D02*
X65977649Y55692816D01*
X65514005Y55817049D02*
X64238982Y56158690D01*
X63775338Y56282924D02*
X62500316Y56624565D01*
X62036672Y56748798D02*
X60761649Y57090439D01*
%TO.C,SW30*%
X112571461Y92411553D02*
X112913102Y91136531D01*
X113037335Y90672887D02*
X113378976Y89397864D01*
X113503210Y88934220D02*
X113844851Y87659198D01*
X113969084Y87195554D02*
X114310725Y85920531D01*
X114313572Y85909906D02*
X113038550Y85568265D01*
X112574906Y85444032D02*
X111299883Y85102391D01*
X110836239Y84978157D02*
X109561217Y84636516D01*
X109097573Y84512283D02*
X107822550Y84170642D01*
X107811925Y84167795D02*
X107470284Y85442817D01*
X107346051Y85906461D02*
X107004410Y87181484D01*
X106880176Y87645128D02*
X106538535Y88920150D01*
X106414302Y89383794D02*
X106072661Y90658817D01*
X106069814Y90669442D02*
X107344836Y91011083D01*
X107808480Y91135316D02*
X109083503Y91476957D01*
X109547147Y91601191D02*
X110822169Y91942832D01*
X111285813Y92067065D02*
X112560836Y92408706D01*
%TO.C,SW29*%
X115211408Y82559099D02*
X115553049Y81284077D01*
X115677282Y80820433D02*
X116018923Y79545410D01*
X116143157Y79081766D02*
X116484798Y77806744D01*
X116609031Y77343100D02*
X116950672Y76068077D01*
X116953519Y76057452D02*
X115678497Y75715811D01*
X115214853Y75591578D02*
X113939830Y75249937D01*
X113476186Y75125703D02*
X112201164Y74784062D01*
X111737520Y74659829D02*
X110462497Y74318188D01*
X110451872Y74315341D02*
X110110231Y75590363D01*
X109985998Y76054007D02*
X109644357Y77329030D01*
X109520123Y77792674D02*
X109178482Y79067696D01*
X109054249Y79531340D02*
X108712608Y80806363D01*
X108709761Y80816988D02*
X109984783Y81158629D01*
X110448427Y81282862D02*
X111723450Y81624503D01*
X112187094Y81748737D02*
X113462116Y82090378D01*
X113925760Y82214611D02*
X115200783Y82556252D01*
%TO.C,SW28*%
X117851354Y72706665D02*
X118192995Y71431643D01*
X118317228Y70967999D02*
X118658869Y69692976D01*
X118783103Y69229332D02*
X119124744Y67954310D01*
X119248977Y67490666D02*
X119590618Y66215643D01*
X119593465Y66205018D02*
X118318443Y65863377D01*
X117854799Y65739144D02*
X116579776Y65397503D01*
X116116132Y65273269D02*
X114841110Y64931628D01*
X114377466Y64807395D02*
X113102443Y64465754D01*
X113091818Y64462907D02*
X112750177Y65737929D01*
X112625944Y66201573D02*
X112284303Y67476596D01*
X112160069Y67940240D02*
X111818428Y69215262D01*
X111694195Y69678906D02*
X111352554Y70953929D01*
X111349707Y70964554D02*
X112624729Y71306195D01*
X113088373Y71430428D02*
X114363396Y71772069D01*
X114827040Y71896303D02*
X116102062Y72237944D01*
X116565706Y72362177D02*
X117840729Y72703818D01*
%TO.C,SW27*%
X122485816Y97138648D02*
X122827457Y95863626D01*
X122951690Y95399982D02*
X123293331Y94124959D01*
X123417565Y93661315D02*
X123759206Y92386293D01*
X123883439Y91922649D02*
X124225080Y90647626D01*
X124227927Y90637001D02*
X122952905Y90295360D01*
X122489261Y90171127D02*
X121214238Y89829486D01*
X120750594Y89705252D02*
X119475572Y89363611D01*
X119011928Y89239378D02*
X117736905Y88897737D01*
X117726280Y88894890D02*
X117384639Y90169912D01*
X117260406Y90633556D02*
X116918765Y91908579D01*
X116794531Y92372223D02*
X116452890Y93647245D01*
X116328657Y94110889D02*
X115987016Y95385912D01*
X115984169Y95396537D02*
X117259191Y95738178D01*
X117722835Y95862411D02*
X118997858Y96204052D01*
X119461502Y96328286D02*
X120736524Y96669927D01*
X121200168Y96794160D02*
X122475191Y97135801D01*
%TO.C,SW26*%
X125125759Y87286202D02*
X125467400Y86011180D01*
X125591633Y85547536D02*
X125933274Y84272513D01*
X126057508Y83808869D02*
X126399149Y82533847D01*
X126523382Y82070203D02*
X126865023Y80795180D01*
X126867870Y80784555D02*
X125592848Y80442914D01*
X125129204Y80318681D02*
X123854181Y79977040D01*
X123390537Y79852806D02*
X122115515Y79511165D01*
X121651871Y79386932D02*
X120376848Y79045291D01*
X120366223Y79042444D02*
X120024582Y80317466D01*
X119900349Y80781110D02*
X119558708Y82056133D01*
X119434474Y82519777D02*
X119092833Y83794799D01*
X118968600Y84258443D02*
X118626959Y85533466D01*
X118624112Y85544091D02*
X119899134Y85885732D01*
X120362778Y86009965D02*
X121637801Y86351606D01*
X122101445Y86475840D02*
X123376467Y86817481D01*
X123840111Y86941714D02*
X125115134Y87283355D01*
%TO.C,SW25*%
X127765727Y77433750D02*
X128107368Y76158728D01*
X128231601Y75695084D02*
X128573242Y74420061D01*
X128697476Y73956417D02*
X129039117Y72681395D01*
X129163350Y72217751D02*
X129504991Y70942728D01*
X129507838Y70932103D02*
X128232816Y70590462D01*
X127769172Y70466229D02*
X126494149Y70124588D01*
X126030505Y70000354D02*
X124755483Y69658713D01*
X124291839Y69534480D02*
X123016816Y69192839D01*
X123006191Y69189992D02*
X122664550Y70465014D01*
X122540317Y70928658D02*
X122198676Y72203681D01*
X122074442Y72667325D02*
X121732801Y73942347D01*
X121608568Y74405991D02*
X121266927Y75681014D01*
X121264080Y75691639D02*
X122539102Y76033280D01*
X123002746Y76157513D02*
X124277769Y76499154D01*
X124741413Y76623388D02*
X126016435Y76965029D01*
X126480079Y77089262D02*
X127755102Y77430903D01*
%TO.C,SW24*%
X132257818Y102396993D02*
X132599459Y101121971D01*
X132723692Y100658327D02*
X133065333Y99383304D01*
X133189567Y98919660D02*
X133531208Y97644638D01*
X133655441Y97180994D02*
X133997082Y95905971D01*
X133999929Y95895346D02*
X132724907Y95553705D01*
X132261263Y95429472D02*
X130986240Y95087831D01*
X130522596Y94963597D02*
X129247574Y94621956D01*
X128783930Y94497723D02*
X127508907Y94156082D01*
X127498282Y94153235D02*
X127156641Y95428257D01*
X127032408Y95891901D02*
X126690767Y97166924D01*
X126566533Y97630568D02*
X126224892Y98905590D01*
X126100659Y99369234D02*
X125759018Y100644257D01*
X125756171Y100654882D02*
X127031193Y100996523D01*
X127494837Y101120756D02*
X128769860Y101462397D01*
X129233504Y101586631D02*
X130508526Y101928272D01*
X130972170Y102052505D02*
X132247193Y102394146D01*
%TO.C,SW23*%
X134897785Y92544554D02*
X135239426Y91269532D01*
X135363659Y90805888D02*
X135705300Y89530865D01*
X135829534Y89067221D02*
X136171175Y87792199D01*
X136295408Y87328555D02*
X136637049Y86053532D01*
X136639896Y86042907D02*
X135364874Y85701266D01*
X134901230Y85577033D02*
X133626207Y85235392D01*
X133162563Y85111158D02*
X131887541Y84769517D01*
X131423897Y84645284D02*
X130148874Y84303643D01*
X130138249Y84300796D02*
X129796608Y85575818D01*
X129672375Y86039462D02*
X129330734Y87314485D01*
X129206500Y87778129D02*
X128864859Y89053151D01*
X128740626Y89516795D02*
X128398985Y90791818D01*
X128396138Y90802443D02*
X129671160Y91144084D01*
X130134804Y91268317D02*
X131409827Y91609958D01*
X131873471Y91734192D02*
X133148493Y92075833D01*
X133612137Y92200066D02*
X134887160Y92541707D01*
%TO.C,SW22*%
X137537730Y82692128D02*
X137879371Y81417106D01*
X138003604Y80953462D02*
X138345245Y79678439D01*
X138469479Y79214795D02*
X138811120Y77939773D01*
X138935353Y77476129D02*
X139276994Y76201106D01*
X139279841Y76190481D02*
X138004819Y75848840D01*
X137541175Y75724607D02*
X136266152Y75382966D01*
X135802508Y75258732D02*
X134527486Y74917091D01*
X134063842Y74792858D02*
X132788819Y74451217D01*
X132778194Y74448370D02*
X132436553Y75723392D01*
X132312320Y76187036D02*
X131970679Y77462059D01*
X131846445Y77925703D02*
X131504804Y79200725D01*
X131380571Y79664369D02*
X131038930Y80939392D01*
X131036083Y80950017D02*
X132311105Y81291658D01*
X132774749Y81415891D02*
X134049772Y81757532D01*
X134513416Y81881766D02*
X135788438Y82223407D01*
X136252082Y82347640D02*
X137527105Y82689281D01*
%TO.C,SW21*%
X145329214Y100114249D02*
X145603657Y98823094D01*
X145703455Y98353583D02*
X145977899Y97062428D01*
X146077696Y96592918D02*
X146352140Y95301763D01*
X146451937Y94832252D02*
X146726381Y93541097D01*
X146728668Y93530336D02*
X145437513Y93255893D01*
X144968002Y93156095D02*
X143676848Y92881651D01*
X143207337Y92781854D02*
X141916182Y92507410D01*
X141446671Y92407613D02*
X140155516Y92133169D01*
X140144756Y92130882D02*
X139870313Y93422037D01*
X139770515Y93891548D02*
X139496071Y95182703D01*
X139396274Y95652213D02*
X139121830Y96943368D01*
X139022033Y97412879D02*
X138747589Y98704034D01*
X138745302Y98714795D02*
X140036457Y98989238D01*
X140505968Y99089036D02*
X141797122Y99363480D01*
X142266633Y99463277D02*
X143557788Y99737721D01*
X144027299Y99837518D02*
X145318454Y100111962D01*
%TO.C,SW20*%
X147449924Y90137154D02*
X147724367Y88845999D01*
X147824165Y88376488D02*
X148098609Y87085333D01*
X148198406Y86615823D02*
X148472850Y85324668D01*
X148572647Y84855157D02*
X148847091Y83564002D01*
X148849378Y83553241D02*
X147558223Y83278798D01*
X147088712Y83179000D02*
X145797558Y82904556D01*
X145328047Y82804759D02*
X144036892Y82530315D01*
X143567381Y82430518D02*
X142276226Y82156074D01*
X142265466Y82153787D02*
X141991023Y83444942D01*
X141891225Y83914453D02*
X141616781Y85205608D01*
X141516984Y85675118D02*
X141242540Y86966273D01*
X141142743Y87435784D02*
X140868299Y88726939D01*
X140866012Y88737700D02*
X142157167Y89012143D01*
X142626678Y89111941D02*
X143917832Y89386385D01*
X144387343Y89486182D02*
X145678498Y89760626D01*
X146148009Y89860423D02*
X147439164Y90134867D01*
%TO.C,SW19*%
X149570621Y80160046D02*
X149845064Y78868891D01*
X149944862Y78399380D02*
X150219306Y77108225D01*
X150319103Y76638715D02*
X150593547Y75347560D01*
X150693344Y74878049D02*
X150967788Y73586894D01*
X150970075Y73576133D02*
X149678920Y73301690D01*
X149209409Y73201892D02*
X147918255Y72927448D01*
X147448744Y72827651D02*
X146157589Y72553207D01*
X145688078Y72453410D02*
X144396923Y72178966D01*
X144386163Y72176679D02*
X144111720Y73467834D01*
X144011922Y73937345D02*
X143737478Y75228500D01*
X143637681Y75698010D02*
X143363237Y76989165D01*
X143263440Y77458676D02*
X142988996Y78749831D01*
X142986709Y78760592D02*
X144277864Y79035035D01*
X144747375Y79134833D02*
X146038529Y79409277D01*
X146508040Y79509074D02*
X147799195Y79783518D01*
X148268706Y79883315D02*
X149559861Y80157759D01*
%TO.C,SW18*%
X159051907Y94536624D02*
X159235615Y93229470D01*
X159302419Y92754141D02*
X159486127Y91446988D01*
X159552930Y90971659D02*
X159736638Y89664505D01*
X159803442Y89189176D02*
X159987150Y87882023D01*
X159988681Y87871129D02*
X158681527Y87687421D01*
X158206198Y87620617D02*
X156899045Y87436909D01*
X156423716Y87370106D02*
X155116562Y87186398D01*
X154641233Y87119594D02*
X153334080Y86935886D01*
X153323186Y86934355D02*
X153139478Y88241509D01*
X153072674Y88716838D02*
X152888966Y90023991D01*
X152822163Y90499320D02*
X152638455Y91806474D01*
X152571651Y92281803D02*
X152387943Y93588956D01*
X152386412Y93599850D02*
X153693566Y93783558D01*
X154168895Y93850362D02*
X155476048Y94034070D01*
X155951377Y94100873D02*
X157258531Y94284581D01*
X157733860Y94351385D02*
X159041013Y94535093D01*
%TO.C,SW17*%
X160471464Y84435899D02*
X160655172Y83128745D01*
X160721976Y82653416D02*
X160905684Y81346263D01*
X160972487Y80870934D02*
X161156195Y79563780D01*
X161222999Y79088451D02*
X161406707Y77781298D01*
X161408238Y77770404D02*
X160101084Y77586696D01*
X159625755Y77519892D02*
X158318602Y77336184D01*
X157843273Y77269381D02*
X156536119Y77085673D01*
X156060790Y77018869D02*
X154753637Y76835161D01*
X154742743Y76833630D02*
X154559035Y78140784D01*
X154492231Y78616113D02*
X154308523Y79923266D01*
X154241720Y80398595D02*
X154058012Y81705749D01*
X153991208Y82181078D02*
X153807500Y83488231D01*
X153805969Y83499125D02*
X155113123Y83682833D01*
X155588452Y83749637D02*
X156895605Y83933345D01*
X157370934Y84000148D02*
X158678088Y84183856D01*
X159153417Y84250660D02*
X160460570Y84434368D01*
%TO.C,SW16*%
X161891038Y74335152D02*
X162074746Y73027998D01*
X162141550Y72552669D02*
X162325258Y71245516D01*
X162392061Y70770187D02*
X162575769Y69463033D01*
X162642573Y68987704D02*
X162826281Y67680551D01*
X162827812Y67669657D02*
X161520658Y67485949D01*
X161045329Y67419145D02*
X159738176Y67235437D01*
X159262847Y67168634D02*
X157955693Y66984926D01*
X157480364Y66918122D02*
X156173211Y66734414D01*
X156162317Y66732883D02*
X155978609Y68040037D01*
X155911805Y68515366D02*
X155728097Y69822519D01*
X155661294Y70297848D02*
X155477586Y71605002D01*
X155410782Y72080331D02*
X155227074Y73387484D01*
X155225543Y73398378D02*
X156532697Y73582086D01*
X157008026Y73648890D02*
X158315179Y73832598D01*
X158790508Y73899401D02*
X160097662Y74083109D01*
X160572991Y74149913D02*
X161880144Y74333621D01*
%TO.C,SW15*%
X79620522Y85787226D02*
X79962163Y87062248D01*
X80086396Y87525892D02*
X80428037Y88800915D01*
X80552271Y89264559D02*
X80893912Y90539581D01*
X81018145Y91003225D02*
X81359786Y92278248D01*
X81362633Y92288873D02*
X82637655Y91947232D01*
X83101299Y91822999D02*
X84376322Y91481358D01*
X84839966Y91357124D02*
X86114988Y91015483D01*
X86578632Y90891250D02*
X87853655Y90549609D01*
X87864280Y90546762D02*
X87522639Y89271740D01*
X87398406Y88808096D02*
X87056765Y87533073D01*
X86932531Y87069429D02*
X86590890Y85794407D01*
X86466657Y85330763D02*
X86125016Y84055740D01*
X86122169Y84045115D02*
X84847147Y84386756D01*
X84383503Y84510989D02*
X83108480Y84852630D01*
X82644836Y84976864D02*
X81369814Y85318505D01*
X80906170Y85442738D02*
X79631147Y85784379D01*
%TO.C,SW14*%
X76980579Y75934784D02*
X77322220Y77209806D01*
X77446453Y77673450D02*
X77788094Y78948473D01*
X77912328Y79412117D02*
X78253969Y80687139D01*
X78378202Y81150783D02*
X78719843Y82425806D01*
X78722690Y82436431D02*
X79997712Y82094790D01*
X80461356Y81970557D02*
X81736379Y81628916D01*
X82200023Y81504682D02*
X83475045Y81163041D01*
X83938689Y81038808D02*
X85213712Y80697167D01*
X85224337Y80694320D02*
X84882696Y79419298D01*
X84758463Y78955654D02*
X84416822Y77680631D01*
X84292588Y77216987D02*
X83950947Y75941965D01*
X83826714Y75478321D02*
X83485073Y74203298D01*
X83482226Y74192673D02*
X82207204Y74534314D01*
X81743560Y74658547D02*
X80468537Y75000188D01*
X80004893Y75124422D02*
X78729871Y75466063D01*
X78266227Y75590296D02*
X76991204Y75931937D01*
%TO.C,SW13*%
X74340617Y66082338D02*
X74682258Y67357360D01*
X74806491Y67821004D02*
X75148132Y69096027D01*
X75272366Y69559671D02*
X75614007Y70834693D01*
X75738240Y71298337D02*
X76079881Y72573360D01*
X76082728Y72583985D02*
X77357750Y72242344D01*
X77821394Y72118111D02*
X79096417Y71776470D01*
X79560061Y71652236D02*
X80835083Y71310595D01*
X81298727Y71186362D02*
X82573750Y70844721D01*
X82584375Y70841874D02*
X82242734Y69566852D01*
X82118501Y69103208D02*
X81776860Y67828185D01*
X81652626Y67364541D02*
X81310985Y66089519D01*
X81186752Y65625875D02*
X80845111Y64350852D01*
X80842264Y64340227D02*
X79567242Y64681868D01*
X79103598Y64806101D02*
X77828575Y65147742D01*
X77364931Y65271976D02*
X76089909Y65613617D01*
X75626265Y65737850D02*
X74351242Y66079491D01*
%TO.C,SW12*%
X69706161Y90514324D02*
X70047802Y91789346D01*
X70172035Y92252990D02*
X70513676Y93528013D01*
X70637910Y93991657D02*
X70979551Y95266679D01*
X71103784Y95730323D02*
X71445425Y97005346D01*
X71448272Y97015971D02*
X72723294Y96674330D01*
X73186938Y96550097D02*
X74461961Y96208456D01*
X74925605Y96084222D02*
X76200627Y95742581D01*
X76664271Y95618348D02*
X77939294Y95276707D01*
X77949919Y95273860D02*
X77608278Y93998838D01*
X77484045Y93535194D02*
X77142404Y92260171D01*
X77018170Y91796527D02*
X76676529Y90521505D01*
X76552296Y90057861D02*
X76210655Y88782838D01*
X76207808Y88772213D02*
X74932786Y89113854D01*
X74469142Y89238087D02*
X73194119Y89579728D01*
X72730475Y89703962D02*
X71455453Y90045603D01*
X70991809Y90169836D02*
X69716786Y90511477D01*
%TO.C,SW11*%
X67066210Y80661875D02*
X67407851Y81936897D01*
X67532084Y82400541D02*
X67873725Y83675564D01*
X67997959Y84139208D02*
X68339600Y85414230D01*
X68463833Y85877874D02*
X68805474Y87152897D01*
X68808321Y87163522D02*
X70083343Y86821881D01*
X70546987Y86697648D02*
X71822010Y86356007D01*
X72285654Y86231773D02*
X73560676Y85890132D01*
X74024320Y85765899D02*
X75299343Y85424258D01*
X75309968Y85421411D02*
X74968327Y84146389D01*
X74844094Y83682745D02*
X74502453Y82407722D01*
X74378219Y81944078D02*
X74036578Y80669056D01*
X73912345Y80205412D02*
X73570704Y78930389D01*
X73567857Y78919764D02*
X72292835Y79261405D01*
X71829191Y79385638D02*
X70554168Y79727279D01*
X70090524Y79851513D02*
X68815502Y80193154D01*
X68351858Y80317387D02*
X67076835Y80659028D01*
%TO.C,SW10*%
X64426252Y70809439D02*
X64767893Y72084461D01*
X64892126Y72548105D02*
X65233767Y73823128D01*
X65358001Y74286772D02*
X65699642Y75561794D01*
X65823875Y76025438D02*
X66165516Y77300461D01*
X66168363Y77311086D02*
X67443385Y76969445D01*
X67907029Y76845212D02*
X69182052Y76503571D01*
X69645696Y76379337D02*
X70920718Y76037696D01*
X71384362Y75913463D02*
X72659385Y75571822D01*
X72670010Y75568975D02*
X72328369Y74293953D01*
X72204136Y73830309D02*
X71862495Y72555286D01*
X71738261Y72091642D02*
X71396620Y70816620D01*
X71272387Y70352976D02*
X70930746Y69077953D01*
X70927899Y69067328D02*
X69652877Y69408969D01*
X69189233Y69533202D02*
X67914210Y69874843D01*
X67450566Y69999077D02*
X66175544Y70340718D01*
X65711900Y70464951D02*
X64436877Y70806592D01*
%TO.C,SW9*%
X59934152Y95772677D02*
X60275793Y97047699D01*
X60400026Y97511343D02*
X60741667Y98786366D01*
X60865901Y99250010D02*
X61207542Y100525032D01*
X61331775Y100988676D02*
X61673416Y102263699D01*
X61676263Y102274324D02*
X62951285Y101932683D01*
X63414929Y101808450D02*
X64689952Y101466809D01*
X65153596Y101342575D02*
X66428618Y101000934D01*
X66892262Y100876701D02*
X68167285Y100535060D01*
X68177910Y100532213D02*
X67836269Y99257191D01*
X67712036Y98793547D02*
X67370395Y97518524D01*
X67246161Y97054880D02*
X66904520Y95779858D01*
X66780287Y95316214D02*
X66438646Y94041191D01*
X66435799Y94030566D02*
X65160777Y94372207D01*
X64697133Y94496440D02*
X63422110Y94838081D01*
X62958466Y94962315D02*
X61683444Y95303956D01*
X61219800Y95428189D02*
X59944777Y95769830D01*
%TO.C,SW8*%
X57294205Y85920236D02*
X57635846Y87195258D01*
X57760079Y87658902D02*
X58101720Y88933925D01*
X58225954Y89397569D02*
X58567595Y90672591D01*
X58691828Y91136235D02*
X59033469Y92411258D01*
X59036316Y92421883D02*
X60311338Y92080242D01*
X60774982Y91956009D02*
X62050005Y91614368D01*
X62513649Y91490134D02*
X63788671Y91148493D01*
X64252315Y91024260D02*
X65527338Y90682619D01*
X65537963Y90679772D02*
X65196322Y89404750D01*
X65072089Y88941106D02*
X64730448Y87666083D01*
X64606214Y87202439D02*
X64264573Y85927417D01*
X64140340Y85463773D02*
X63798699Y84188750D01*
X63795852Y84178125D02*
X62520830Y84519766D01*
X62057186Y84643999D02*
X60782163Y84985640D01*
X60318519Y85109874D02*
X59043497Y85451515D01*
X58579853Y85575748D02*
X57304830Y85917389D01*
%TO.C,SW7*%
X54654246Y76067790D02*
X54995887Y77342812D01*
X55120120Y77806456D02*
X55461761Y79081479D01*
X55585995Y79545123D02*
X55927636Y80820145D01*
X56051869Y81283789D02*
X56393510Y82558812D01*
X56396357Y82569437D02*
X57671379Y82227796D01*
X58135023Y82103563D02*
X59410046Y81761922D01*
X59873690Y81637688D02*
X61148712Y81296047D01*
X61612356Y81171814D02*
X62887379Y80830173D01*
X62898004Y80827326D02*
X62556363Y79552304D01*
X62432130Y79088660D02*
X62090489Y77813637D01*
X61966255Y77349993D02*
X61624614Y76074971D01*
X61500381Y75611327D02*
X61158740Y74336304D01*
X61155893Y74325679D02*
X59880871Y74667320D01*
X59417227Y74791553D02*
X58142204Y75133194D01*
X57678560Y75257428D02*
X56403538Y75599069D01*
X55939894Y75723302D02*
X54664871Y76064943D01*
%TO.C,SW6*%
X47211863Y93406116D02*
X47486306Y94697271D01*
X47586104Y95166782D02*
X47860548Y96457936D01*
X47960345Y96927447D02*
X48234789Y98218602D01*
X48334586Y98688113D02*
X48609030Y99979268D01*
X48611317Y99990028D02*
X49902472Y99715585D01*
X50371983Y99615787D02*
X51663138Y99341343D01*
X52132648Y99241546D02*
X53423803Y98967102D01*
X53893314Y98867305D02*
X55184469Y98592861D01*
X55195230Y98590574D02*
X54920787Y97299419D01*
X54820989Y96829908D02*
X54546545Y95538754D01*
X54446748Y95069243D02*
X54172304Y93778088D01*
X54072507Y93308577D02*
X53798063Y92017422D01*
X53795776Y92006662D02*
X52504621Y92281105D01*
X52035110Y92380903D02*
X50743955Y92655347D01*
X50274445Y92755144D02*
X48983290Y93029588D01*
X48513779Y93129385D02*
X47222624Y93403829D01*
%TO.C,SW5*%
X45091170Y83429023D02*
X45365613Y84720178D01*
X45465411Y85189689D02*
X45739855Y86480843D01*
X45839652Y86950354D02*
X46114096Y88241509D01*
X46213893Y88711020D02*
X46488337Y90002175D01*
X46490624Y90012935D02*
X47781779Y89738492D01*
X48251290Y89638694D02*
X49542445Y89364250D01*
X50011955Y89264453D02*
X51303110Y88990009D01*
X51772621Y88890212D02*
X53063776Y88615768D01*
X53074537Y88613481D02*
X52800094Y87322326D01*
X52700296Y86852815D02*
X52425852Y85561661D01*
X52326055Y85092150D02*
X52051611Y83800995D01*
X51951814Y83331484D02*
X51677370Y82040329D01*
X51675083Y82029569D02*
X50383928Y82304012D01*
X49914417Y82403810D02*
X48623262Y82678254D01*
X48153752Y82778051D02*
X46862597Y83052495D01*
X46393086Y83152292D02*
X45101931Y83426736D01*
%TO.C,SW4*%
X42970476Y73451903D02*
X43244919Y74743058D01*
X43344717Y75212569D02*
X43619161Y76503723D01*
X43718958Y76973234D02*
X43993402Y78264389D01*
X44093199Y78733900D02*
X44367643Y80025055D01*
X44369930Y80035815D02*
X45661085Y79761372D01*
X46130596Y79661574D02*
X47421751Y79387130D01*
X47891261Y79287333D02*
X49182416Y79012889D01*
X49651927Y78913092D02*
X50943082Y78638648D01*
X50953843Y78636361D02*
X50679400Y77345206D01*
X50579602Y76875695D02*
X50305158Y75584541D01*
X50205361Y75115030D02*
X49930917Y73823875D01*
X49831120Y73354364D02*
X49556676Y72063209D01*
X49554389Y72052449D02*
X48263234Y72326892D01*
X47793723Y72426690D02*
X46502568Y72701134D01*
X46033058Y72800931D02*
X44741903Y73075375D01*
X44272392Y73175172D02*
X42981237Y73449616D01*
%TO.C,SW3*%
X33960602Y87745370D02*
X34144310Y89052524D01*
X34211114Y89527853D02*
X34394822Y90835006D01*
X34461625Y91310335D02*
X34645333Y92617489D01*
X34712137Y93092818D02*
X34895845Y94399971D01*
X34897376Y94410865D02*
X36204530Y94227157D01*
X36679859Y94160353D02*
X37987012Y93976645D01*
X38462341Y93909842D02*
X39769495Y93726134D01*
X40244824Y93659330D02*
X41551977Y93475622D01*
X41562871Y93474091D02*
X41379163Y92166937D01*
X41312359Y91691608D02*
X41128651Y90384455D01*
X41061848Y89909126D02*
X40878140Y88601972D01*
X40811336Y88126643D02*
X40627628Y86819490D01*
X40626097Y86808596D02*
X39318943Y86992304D01*
X38843614Y87059108D02*
X37536461Y87242816D01*
X37061132Y87309619D02*
X35753978Y87493327D01*
X35278649Y87560131D02*
X33971496Y87743839D01*
%TO.C,SW2*%
X32541042Y77644632D02*
X32724750Y78951786D01*
X32791554Y79427115D02*
X32975262Y80734268D01*
X33042065Y81209597D02*
X33225773Y82516751D01*
X33292577Y82992080D02*
X33476285Y84299233D01*
X33477816Y84310127D02*
X34784970Y84126419D01*
X35260299Y84059615D02*
X36567452Y83875907D01*
X37042781Y83809104D02*
X38349935Y83625396D01*
X38825264Y83558592D02*
X40132417Y83374884D01*
X40143311Y83373353D02*
X39959603Y82066199D01*
X39892799Y81590870D02*
X39709091Y80283717D01*
X39642288Y79808388D02*
X39458580Y78501234D01*
X39391776Y78025905D02*
X39208068Y76718752D01*
X39206537Y76707858D02*
X37899383Y76891566D01*
X37424054Y76958370D02*
X36116901Y77142078D01*
X35641572Y77208881D02*
X34334418Y77392589D01*
X33859089Y77459393D02*
X32551936Y77643101D01*
%TO.C,SW1*%
X31121476Y67543891D02*
X31305184Y68851045D01*
X31371988Y69326374D02*
X31555696Y70633527D01*
X31622499Y71108856D02*
X31806207Y72416010D01*
X31873011Y72891339D02*
X32056719Y74198492D01*
X32058250Y74209386D02*
X33365404Y74025678D01*
X33840733Y73958874D02*
X35147886Y73775166D01*
X35623215Y73708363D02*
X36930369Y73524655D01*
X37405698Y73457851D02*
X38712851Y73274143D01*
X38723745Y73272612D02*
X38540037Y71965458D01*
X38473233Y71490129D02*
X38289525Y70182976D01*
X38222722Y69707647D02*
X38039014Y68400493D01*
X37972210Y67925164D02*
X37788502Y66618011D01*
X37786971Y66607117D02*
X36479817Y66790825D01*
X36004488Y66857629D02*
X34697335Y67041337D01*
X34222006Y67108140D02*
X32914852Y67291848D01*
X32439523Y67358652D02*
X31132370Y67542360D01*
%TD*%
%LPC*%
D12*
%TO.C,U1*%
X105103476Y96793351D03*
X105103476Y94253351D03*
X105103476Y91713351D03*
X105103476Y89173351D03*
X105103476Y86633351D03*
X105103476Y84093351D03*
X105103476Y81553351D03*
X105103476Y79013351D03*
X105103476Y76473351D03*
D13*
X102063476Y75973351D03*
X99523476Y75973351D03*
X96983476Y75973351D03*
X94443476Y75973351D03*
X91903476Y75973351D03*
D12*
X88863476Y76473351D03*
X88863476Y79013351D03*
X88863476Y81553351D03*
X88863476Y84093351D03*
X88863476Y86633351D03*
X88863476Y89173351D03*
X88863476Y91713351D03*
X88863476Y96793351D03*
X88863476Y94253351D03*
%TD*%
D14*
%TO.C,H1*%
X43626240Y91437603D03*
%TD*%
%TO.C,H2*%
X150340712Y91437603D03*
%TD*%
%TO.C,H3*%
X45000452Y67120501D03*
%TD*%
%TO.C,H4*%
X148966497Y67120509D03*
%TD*%
%TO.C,H5*%
X86180303Y95965233D03*
%TD*%
%TO.C,H6*%
X107786651Y95965238D03*
%TD*%
%TO.C,H7*%
X85564009Y59214893D03*
%TD*%
%TO.C,H8*%
X108402965Y59214885D03*
%TD*%
D15*
%TO.C,SW36*%
X106649258Y51823711D03*
X109517140Y47727951D03*
%TD*%
%TO.C,SW35*%
X117120063Y57869042D03*
X119233154Y53337503D03*
%TD*%
%TO.C,SW34*%
X128481562Y62004281D03*
X129775657Y57174651D03*
%TD*%
%TO.C,SW33*%
X84403927Y47662427D03*
X87271809Y51758187D03*
%TD*%
%TO.C,SW32*%
X74699988Y53265006D03*
X76813079Y57796545D03*
%TD*%
%TO.C,SW31*%
X64170602Y57097373D03*
X65464697Y61927003D03*
%TD*%
%TO.C,SW30*%
X109612064Y90698225D03*
X110906159Y85868595D03*
%TD*%
%TO.C,SW29*%
X112252011Y80845771D03*
X113546106Y76016141D03*
%TD*%
%TO.C,SW28*%
X114891957Y70993337D03*
X116186052Y66163707D03*
%TD*%
%TO.C,SW27*%
X119526419Y95425320D03*
X120820514Y90595690D03*
%TD*%
%TO.C,SW26*%
X122166362Y85572874D03*
X123460457Y80743244D03*
%TD*%
%TO.C,SW25*%
X124806330Y75720422D03*
X126100425Y70890792D03*
%TD*%
%TO.C,SW24*%
X129298421Y100683665D03*
X130592516Y95854035D03*
%TD*%
%TO.C,SW23*%
X131938388Y90831226D03*
X133232483Y86001596D03*
%TD*%
%TO.C,SW22*%
X134578333Y80978800D03*
X135872428Y76149170D03*
%TD*%
%TO.C,SW21*%
X142284204Y98558150D03*
X143323763Y93667412D03*
%TD*%
%TO.C,SW20*%
X144404914Y88581055D03*
X145444473Y83690317D03*
%TD*%
%TO.C,SW19*%
X146525611Y78603947D03*
X147565170Y73713209D03*
%TD*%
%TO.C,SW18*%
X155905766Y93196726D03*
X156601632Y88245386D03*
%TD*%
%TO.C,SW17*%
X157325323Y83096001D03*
X158021189Y78144661D03*
%TD*%
%TO.C,SW16*%
X158744897Y72995254D03*
X159440763Y68043914D03*
%TD*%
%TO.C,SW15*%
X84334195Y90620943D03*
X83040100Y85791313D03*
%TD*%
%TO.C,SW14*%
X81694252Y80768501D03*
X80400157Y75938871D03*
%TD*%
%TO.C,SW13*%
X77760195Y66086425D03*
X79054290Y70916055D03*
%TD*%
%TO.C,SW12*%
X74419834Y95348041D03*
X73125739Y90518411D03*
%TD*%
%TO.C,SW11*%
X71779883Y85495592D03*
X70485788Y80665962D03*
%TD*%
%TO.C,SW10*%
X67845830Y70813526D03*
X69139925Y75643156D03*
%TD*%
%TO.C,SW9*%
X63353730Y95776764D03*
X64647825Y100606394D03*
%TD*%
%TO.C,SW8*%
X60713783Y85924323D03*
X62007878Y90753953D03*
%TD*%
%TO.C,SW7*%
X58073824Y76071877D03*
X59367919Y80901507D03*
%TD*%
%TO.C,SW6*%
X50626540Y93589165D03*
X51666099Y98479903D03*
%TD*%
%TO.C,SW5*%
X48505847Y83612072D03*
X49545406Y88502810D03*
%TD*%
%TO.C,SW4*%
X46385153Y73634952D03*
X47424712Y78525690D03*
%TD*%
%TO.C,SW3*%
X37354192Y88166169D03*
X38050058Y93117509D03*
%TD*%
%TO.C,SW2*%
X35934632Y78065431D03*
X36630498Y83016771D03*
%TD*%
%TO.C,SW1*%
X34515066Y67964690D03*
X35210932Y72916030D03*
%TD*%
%LPD*%
M02*
