%TF.GenerationSoftware,KiCad,Pcbnew,7.0.6*%
%TF.CreationDate,2025-05-26T00:34:49-04:00*%
%TF.ProjectId,bw2,6277322e-6b69-4636-9164-5f7063625858,2*%
%TF.SameCoordinates,Original*%
%TF.FileFunction,Soldermask,Top*%
%TF.FilePolarity,Negative*%
%FSLAX46Y46*%
G04 Gerber Fmt 4.6, Leading zero omitted, Abs format (unit mm)*
G04 Created by KiCad (PCBNEW 7.0.6) date 2025-05-26 00:34:49*
%MOMM*%
%LPD*%
G01*
G04 APERTURE LIST*
%ADD10O,2.600000X1.600000*%
%ADD11O,1.600000X2.600000*%
%ADD12C,2.300000*%
%ADD13C,1.852600*%
G04 APERTURE END LIST*
D10*
%TO.C,U1*%
X105103476Y96793351D03*
X105103476Y94253351D03*
X105103476Y91713351D03*
X105103476Y89173351D03*
X105103476Y86633351D03*
X105103476Y84093351D03*
X105103476Y81553351D03*
X105103476Y79013351D03*
X105103476Y76473351D03*
D11*
X102063476Y75973351D03*
X99523476Y75973351D03*
X96983476Y75973351D03*
X94443476Y75973351D03*
X91903476Y75973351D03*
D10*
X88863476Y76473351D03*
X88863476Y79013351D03*
X88863476Y81553351D03*
X88863476Y84093351D03*
X88863476Y86633351D03*
X88863476Y89173351D03*
X88863476Y91713351D03*
X88863476Y96793351D03*
X88863476Y94253351D03*
%TD*%
D12*
%TO.C,H1*%
X43626240Y91437603D03*
%TD*%
%TO.C,H2*%
X150340712Y91437603D03*
%TD*%
%TO.C,H3*%
X45000452Y67120501D03*
%TD*%
%TO.C,H4*%
X148966497Y67120509D03*
%TD*%
%TO.C,H5*%
X86180303Y95965233D03*
%TD*%
%TO.C,H6*%
X107786651Y95965238D03*
%TD*%
%TO.C,H7*%
X85564009Y59214893D03*
%TD*%
%TO.C,H8*%
X108402965Y59214885D03*
%TD*%
D13*
%TO.C,SW36*%
X106649258Y51823711D03*
X109517140Y47727951D03*
%TD*%
%TO.C,SW35*%
X117120063Y57869042D03*
X119233154Y53337503D03*
%TD*%
%TO.C,SW34*%
X128481562Y62004281D03*
X129775657Y57174651D03*
%TD*%
%TO.C,SW33*%
X84403927Y47662427D03*
X87271809Y51758187D03*
%TD*%
%TO.C,SW32*%
X74699988Y53265006D03*
X76813079Y57796545D03*
%TD*%
%TO.C,SW31*%
X64170602Y57097373D03*
X65464697Y61927003D03*
%TD*%
%TO.C,SW30*%
X109612064Y90698225D03*
X110906159Y85868595D03*
%TD*%
%TO.C,SW29*%
X112252011Y80845771D03*
X113546106Y76016141D03*
%TD*%
%TO.C,SW28*%
X114891957Y70993337D03*
X116186052Y66163707D03*
%TD*%
%TO.C,SW27*%
X119526419Y95425320D03*
X120820514Y90595690D03*
%TD*%
%TO.C,SW26*%
X122166362Y85572874D03*
X123460457Y80743244D03*
%TD*%
%TO.C,SW25*%
X124806330Y75720422D03*
X126100425Y70890792D03*
%TD*%
%TO.C,SW24*%
X129298421Y100683665D03*
X130592516Y95854035D03*
%TD*%
%TO.C,SW23*%
X131938388Y90831226D03*
X133232483Y86001596D03*
%TD*%
%TO.C,SW22*%
X134578333Y80978800D03*
X135872428Y76149170D03*
%TD*%
%TO.C,SW21*%
X142284204Y98558150D03*
X143323763Y93667412D03*
%TD*%
%TO.C,SW20*%
X144404914Y88581055D03*
X145444473Y83690317D03*
%TD*%
%TO.C,SW19*%
X146525611Y78603947D03*
X147565170Y73713209D03*
%TD*%
%TO.C,SW18*%
X155905766Y93196726D03*
X156601632Y88245386D03*
%TD*%
%TO.C,SW17*%
X157325323Y83096001D03*
X158021189Y78144661D03*
%TD*%
%TO.C,SW16*%
X158744897Y72995254D03*
X159440763Y68043914D03*
%TD*%
%TO.C,SW15*%
X84334195Y90620943D03*
X83040100Y85791313D03*
%TD*%
%TO.C,SW14*%
X81694252Y80768501D03*
X80400157Y75938871D03*
%TD*%
%TO.C,SW13*%
X77760195Y66086425D03*
X79054290Y70916055D03*
%TD*%
%TO.C,SW12*%
X74419834Y95348041D03*
X73125739Y90518411D03*
%TD*%
%TO.C,SW11*%
X71779883Y85495592D03*
X70485788Y80665962D03*
%TD*%
%TO.C,SW10*%
X67845830Y70813526D03*
X69139925Y75643156D03*
%TD*%
%TO.C,SW9*%
X63353730Y95776764D03*
X64647825Y100606394D03*
%TD*%
%TO.C,SW8*%
X60713783Y85924323D03*
X62007878Y90753953D03*
%TD*%
%TO.C,SW7*%
X58073824Y76071877D03*
X59367919Y80901507D03*
%TD*%
%TO.C,SW6*%
X50626540Y93589165D03*
X51666099Y98479903D03*
%TD*%
%TO.C,SW5*%
X48505847Y83612072D03*
X49545406Y88502810D03*
%TD*%
%TO.C,SW4*%
X46385153Y73634952D03*
X47424712Y78525690D03*
%TD*%
%TO.C,SW3*%
X37354192Y88166169D03*
X38050058Y93117509D03*
%TD*%
%TO.C,SW2*%
X35934632Y78065431D03*
X36630498Y83016771D03*
%TD*%
%TO.C,SW1*%
X34515066Y67964690D03*
X35210932Y72916030D03*
%TD*%
M02*
