M48
; DRILL file {KiCad 7.0.6} date Mon May 26 00:34:49 2025
; FORMAT={-:-/ absolute / inch / decimal}
; #@! TF.CreationDate,2025-05-26T00:34:49-04:00
; #@! TF.GenerationSoftware,Kicad,Pcbnew,7.0.6
; #@! TF.FileFunction,Plated,1,2,PTH
FMAT,2
INCH
; #@! TA.AperFunction,Plated,PTH,ComponentDrill
T1C0.0118
; #@! TA.AperFunction,Plated,PTH,ViaDrill
T2C0.0157
; #@! TA.AperFunction,Plated,PTH,ComponentDrill
T3C0.0394
; #@! TA.AperFunction,Plated,PTH,ComponentDrill
T4C0.0430
%
G90
G05
T1
X1.2738Y2.7887
X1.3296Y3.1864
X1.3855Y3.5841
X1.7492Y3.0176
X1.8327Y3.4104
X1.9161Y3.8032
X2.2157Y3.1174
X2.3196Y3.5053
X2.4235Y3.8932
X2.4557Y2.3704
X2.6004Y2.9104
X2.7043Y3.2983
X2.8083Y3.6862
X2.8926Y2.2299
X2.9907Y2.7243
X3.0946Y3.1122
X3.1986Y3.5001
X3.2984Y2.0157
X4.1742Y1.901
X4.2447Y3.4483
X4.3487Y3.0604
X4.4526Y2.6725
X4.5627Y2.1454
X4.6351Y3.6344
X4.739Y3.2465
X4.8429Y2.8586
X4.9876Y2.3186
X5.0198Y3.8414
X5.1237Y3.4536
X5.2276Y3.0657
X5.5247Y3.7616
X5.6082Y3.3688
X5.6917Y2.976
X6.0529Y3.5562
X6.1088Y3.1586
X6.1647Y2.7609
T2
X3.2244Y2.7224
X3.6178Y2.6454
X3.7173Y2.637
X3.7175Y2.4187
X3.8179Y2.3888
X3.8181Y2.6284
X3.9183Y2.6569
X3.9183Y2.3603
X4.0176Y2.338
X4.0177Y2.687
X6.1938Y2.9323
T3
X3.5182Y3.8108
X3.5182Y3.7108
X3.5182Y3.6108
X3.5182Y3.5108
X3.5182Y3.4108
X3.5182Y3.3108
X3.5182Y3.2108
X3.5182Y3.1108
X3.5182Y3.0108
X3.6182Y3.0108
X3.7182Y3.0108
X3.8182Y3.0108
X3.9182Y3.0108
X4.0182Y3.0108
X4.1182Y3.8108
X4.1182Y3.7108
X4.1182Y3.6108
X4.1182Y3.5108
X4.1182Y3.4108
X4.1182Y3.3108
X4.1182Y3.2108
X4.1182Y3.1108
X4.1182Y3.0108
T4
X1.3589Y2.6758
X1.3863Y2.8707
X1.4147Y3.0734
X1.4421Y3.2684
X1.4706Y3.4711
X1.498Y3.666
X1.8262Y2.899
X1.8671Y3.0916
X1.9097Y3.2918
X1.9506Y3.4844
X1.9932Y3.6846
X2.0341Y3.8772
X2.2864Y2.995
X2.3373Y3.1851
X2.3903Y3.3828
X2.4413Y3.573
X2.4942Y3.7707
X2.5264Y2.2479
X2.5452Y3.9609
X2.5774Y2.4381
X2.6711Y2.7879
X2.722Y2.9781
X2.775Y3.1758
X2.826Y3.366
X2.879Y3.5637
X2.9299Y3.7539
X2.9409Y2.097
X3.0241Y2.2755
X3.0614Y2.6018
X3.1124Y2.792
X3.1654Y2.9897
X3.2163Y3.1799
X3.2693Y3.3776
X3.3202Y3.5678
X3.323Y1.8765
X3.4359Y2.0377
X4.1988Y2.0403
X4.3117Y1.8791
X4.3154Y3.5708
X4.3664Y3.3807
X4.4194Y3.1829
X4.4703Y2.9928
X4.5233Y2.795
X4.5743Y2.6049
X4.611Y2.2783
X4.6942Y2.0999
X4.7058Y3.7569
X4.7567Y3.5668
X4.8097Y3.369
X4.8606Y3.1789
X4.9136Y2.9811
X4.9646Y2.791
X5.0583Y2.4411
X5.0905Y3.9639
X5.1093Y2.251
X5.1414Y3.7738
X5.1944Y3.576
X5.2454Y3.3859
X5.2984Y3.1881
X5.3493Y2.998
X5.6017Y3.8802
X5.6427Y3.6877
X5.6852Y3.4874
X5.7262Y3.2949
X5.7687Y3.0946
X5.8097Y2.9021
X6.138Y3.6692
X6.1654Y3.4742
X6.1939Y3.2715
X6.2213Y3.0766
X6.2498Y2.8738
X6.2772Y2.6789
T0
M30
